<svg width="188" height="64" viewBox="0 0 188 64" fill="none" xmlns="http://www.w3.org/2000/svg">
<path d="M22.08 17.48H12.04C10.8667 17.48 10.04 17.7067 9.56 18.16C9.10667 18.6133 8.88 19.4 8.88 20.52V24.48H19.32L18.92 29.44H8.88V41H3.32V18.32C3.32 16.2133 3.77333 14.72 4.68 13.84C5.61333 12.96 7.2 12.52 9.44 12.52H22.08V17.48ZM39.3738 30.68V28.6C39.3738 26.6267 39.0804 25.12 38.4938 24.08C37.9338 23.04 36.7471 22.52 34.9338 22.52C32.0004 22.52 30.5338 24.4933 30.5338 28.44V30.52C30.5338 34.76 32.0004 36.88 34.9338 36.88C36.8271 36.88 38.0671 36.1733 38.6538 34.76C39.1338 33.64 39.3738 32.28 39.3738 30.68ZM44.5738 29.48C44.5738 34.4133 43.6404 37.72 41.7738 39.4C40.2004 40.84 37.9204 41.56 34.9338 41.56C31.1204 41.56 28.5471 40.44 27.2138 38.2C25.9604 36.1467 25.3338 33.24 25.3338 29.48C25.3338 25.96 25.9604 23.2 27.2138 21.2C28.6004 18.96 31.1204 17.84 34.7738 17.84C38.4538 17.84 41.0004 18.8267 42.4138 20.8C43.8538 22.7467 44.5738 25.64 44.5738 29.48ZM61.5925 30.68V28.6C61.5925 26.6267 61.2992 25.12 60.7125 24.08C60.1525 23.04 58.9658 22.52 57.1525 22.52C54.2192 22.52 52.7525 24.4933 52.7525 28.44V30.52C52.7525 34.76 54.2192 36.88 57.1525 36.88C59.0458 36.88 60.2858 36.1733 60.8725 34.76C61.3525 33.64 61.5925 32.28 61.5925 30.68ZM66.7925 29.48C66.7925 34.4133 65.8592 37.72 63.9925 39.4C62.4192 40.84 60.1392 41.56 57.1525 41.56C53.3392 41.56 50.7658 40.44 49.4325 38.2C48.1792 36.1467 47.5525 33.24 47.5525 29.48C47.5525 25.96 48.1792 23.2 49.4325 21.2C50.8192 18.96 53.3392 17.84 56.9925 17.84C60.6725 17.84 63.2192 18.8267 64.6325 20.8C66.0725 22.7467 66.7925 25.64 66.7925 29.48ZM88.0513 41H84.5713L82.9713 38.24L77.4113 41.24C74.3179 41.24 72.2379 40.12 71.1712 37.88C70.6379 36.7867 70.2646 35.6133 70.0513 34.36C69.8646 33.08 69.7713 31.76 69.7713 30.4C69.7713 29.0133 69.7846 28 69.8113 27.36C69.8379 26.6933 69.9046 25.9333 70.0113 25.08C70.1179 24.2 70.2646 23.4667 70.4513 22.88C70.6646 22.2933 70.9579 21.6933 71.3313 21.08C71.7046 20.44 72.1579 19.9333 72.6913 19.56C73.8913 18.7333 75.4513 18.32 77.3713 18.32H82.8513V10.92H88.0513V41ZM82.8513 33.72V23H78.8913C77.4246 23 76.3979 23.56 75.8113 24.68C75.2513 25.8 74.9713 27.48 74.9713 29.72C74.9713 31.9333 75.2379 33.4933 75.7713 34.4C76.3313 35.3067 77.3713 35.76 78.8913 35.76L82.8513 33.72ZM116.973 12.52V38.12C116.973 39 116.706 39.76 116.173 40.4C115.64 41.0133 115.013 41.32 114.293 41.32C112.453 41.32 110.946 40.2533 109.773 38.12L99.9331 22.72V41H94.3731V12.52H99.7331L111.413 31.16V12.52H116.973ZM125.482 9.44C126.735 9.44 127.549 9.64 127.922 10.04C128.295 10.4133 128.482 11.2267 128.482 12.48C128.482 13.7067 128.282 14.52 127.882 14.92C127.509 15.2933 126.695 15.48 125.442 15.48C124.215 15.48 123.402 15.28 123.002 14.88C122.629 14.48 122.442 13.6667 122.442 12.44C122.442 11.2133 122.629 10.4133 123.002 10.04C123.402 9.64 124.229 9.44 125.482 9.44ZM128.042 41H122.842V19H128.042V41ZM152.078 41H146.878V26.4C146.878 25.0933 146.611 24.2 146.078 23.72C145.544 23.24 144.798 23 143.838 23L139.158 24.96V41H133.958V18.16H137.838L139.038 20.88L145.438 17.92C147.224 17.92 148.771 18.5867 150.078 19.92C151.411 21.2267 152.078 23.1467 152.078 25.68V41ZM162.987 19V41.84C162.987 43.4667 162.467 44.8667 161.427 46.04C160.414 47.2133 158.907 47.8 156.907 47.8H153.947V43.4H155.947C157.174 43.4 157.787 42.7733 157.787 41.52V19H162.987ZM160.427 9.44C161.681 9.44 162.494 9.64 162.867 10.04C163.241 10.4133 163.427 11.2267 163.427 12.48C163.427 13.7067 163.227 14.52 162.827 14.92C162.454 15.2933 161.641 15.48 160.387 15.48C159.161 15.48 158.347 15.28 157.947 14.88C157.574 14.48 157.387 13.6667 157.387 12.44C157.387 11.2133 157.574 10.4133 157.947 10.04C158.347 9.64 159.174 9.44 160.427 9.44ZM185.023 41H181.543L179.943 38.24L174.383 41.24C171.289 41.24 169.209 40.12 168.143 37.88C167.609 36.7867 167.236 35.6133 167.023 34.36C166.836 33.08 166.743 31.76 166.743 30.4C166.743 29.0133 166.756 28 166.783 27.36C166.809 26.6933 166.876 25.9333 166.983 25.08C167.089 24.2 167.236 23.4667 167.423 22.88C167.636 22.2933 167.929 21.6933 168.303 21.08C168.676 20.44 169.129 19.9333 169.663 19.56C170.863 18.7333 172.423 18.32 174.343 18.32H179.823L185.023 18V41ZM179.823 33.72V23H175.863C174.396 23 173.369 23.56 172.783 24.68C172.223 25.8 171.943 27.48 171.943 29.72C171.943 31.9333 172.209 33.4933 172.743 34.4C173.303 35.3067 174.343 35.76 175.863 35.76L179.823 33.72Z" fill="url(#paint0_linear_169_32117)"/>
<path d="M17.1364 61H13.9325V51.5455H17.201C18.1397 51.5455 18.946 51.7347 19.62 52.1133C20.2971 52.4888 20.8172 53.0289 21.1804 53.7337C21.5436 54.4384 21.7251 55.2817 21.7251 56.2635C21.7251 57.2483 21.542 58.0947 21.1758 58.8026C20.8126 59.5104 20.2879 60.0536 19.6016 60.4322C18.9183 60.8107 18.0966 61 17.1364 61ZM15.6452 59.5181H17.0533C17.7119 59.5181 18.2612 59.3981 18.7013 59.158C19.1415 58.9149 19.4723 58.5533 19.6939 58.0732C19.9155 57.59 20.0263 56.9867 20.0263 56.2635C20.0263 55.5402 19.9155 54.9401 19.6939 54.4631C19.4723 53.983 19.1445 53.6244 18.7106 53.3874C18.2797 53.1474 17.7442 53.0273 17.104 53.0273H15.6452V59.5181ZM27.4178 61.1385C26.7069 61.1385 26.0929 60.9908 25.5758 60.6953C25.0618 60.3968 24.6664 59.9751 24.3894 59.4304C24.1124 58.8826 23.9739 58.2378 23.9739 57.4961C23.9739 56.7667 24.1124 56.1265 24.3894 55.5756C24.6694 55.0217 25.0603 54.5908 25.562 54.283C26.0636 53.9722 26.653 53.8168 27.3301 53.8168C27.7671 53.8168 28.1795 53.8875 28.5673 54.0291C28.9582 54.1676 29.3029 54.383 29.6014 54.6754C29.903 54.9678 30.14 55.3402 30.3123 55.7926C30.4847 56.242 30.5708 56.7775 30.5708 57.3991V57.9116H24.7587V56.7852H28.9689C28.9659 56.4651 28.8966 56.1804 28.7612 55.9311C28.6258 55.6787 28.4365 55.4802 28.1934 55.3356C27.9533 55.1909 27.6732 55.1186 27.3532 55.1186C27.0115 55.1186 26.7115 55.2017 26.4529 55.3679C26.1944 55.531 25.9928 55.7464 25.8482 56.0142C25.7066 56.2789 25.6343 56.5697 25.6312 56.8867V57.87C25.6312 58.2824 25.7066 58.6364 25.8574 58.9318C26.0082 59.2242 26.219 59.4489 26.4899 59.6058C26.7607 59.7597 27.0777 59.8366 27.4409 59.8366C27.684 59.8366 27.9041 59.8028 28.101 59.7351C28.298 59.6643 28.4688 59.5612 28.6135 59.4258C28.7581 59.2904 28.8674 59.1226 28.9412 58.9226L30.5016 59.098C30.4031 59.5104 30.2154 59.8705 29.9384 60.1783C29.6645 60.483 29.3136 60.7199 28.8858 60.8892C28.458 61.0554 27.9687 61.1385 27.4178 61.1385ZM34.6558 51.5455V61H32.9846V51.5455H34.6558ZM37.3743 61V53.9091H39.0455V61H37.3743ZM38.2145 52.9027C37.9467 52.9027 37.7174 52.815 37.5266 52.6396C37.3389 52.4611 37.245 52.2472 37.245 51.9979C37.245 51.7455 37.3404 51.5316 37.5312 51.3562C37.7221 51.1777 37.9498 51.0884 38.2145 51.0884C38.4792 51.0884 38.7054 51.1777 38.8931 51.3562C39.0839 51.5316 39.1793 51.7455 39.1793 51.9979C39.1793 52.2472 39.0839 52.4611 38.8931 52.6396C38.7054 52.815 38.4792 52.9027 38.2145 52.9027ZM44.9031 61.1385C44.1922 61.1385 43.5782 60.9908 43.0612 60.6953C42.5472 60.3968 42.1517 59.9751 41.8747 59.4304C41.5977 58.8826 41.4593 58.2378 41.4593 57.4961C41.4593 56.7667 41.5977 56.1265 41.8747 55.5756C42.1548 55.0217 42.5457 54.5908 43.0473 54.283C43.549 53.9722 44.1383 53.8168 44.8154 53.8168C45.2525 53.8168 45.6649 53.8875 46.0526 54.0291C46.4435 54.1676 46.7882 54.383 47.0867 54.6754C47.3883 54.9678 47.6253 55.3402 47.7977 55.7926C47.97 56.242 48.0562 56.7775 48.0562 57.3991V57.9116H42.2441V56.7852H46.4543C46.4512 56.4651 46.382 56.1804 46.2465 55.9311C46.1111 55.6787 45.9218 55.4802 45.6787 55.3356C45.4387 55.1909 45.1586 55.1186 44.8385 55.1186C44.4969 55.1186 44.1968 55.2017 43.9383 55.3679C43.6798 55.531 43.4782 55.7464 43.3335 56.0142C43.192 56.2789 43.1196 56.5697 43.1166 56.8867V57.87C43.1166 58.2824 43.192 58.6364 43.3428 58.9318C43.4936 59.2242 43.7044 59.4489 43.9752 59.6058C44.2461 59.7597 44.5631 59.8366 44.9262 59.8366C45.1694 59.8366 45.3894 59.8028 45.5864 59.7351C45.7834 59.6643 45.9542 59.5612 46.0988 59.4258C46.2435 59.2904 46.3527 59.1226 46.4266 58.9226L47.9869 59.098C47.8885 59.5104 47.7007 59.8705 47.4237 60.1783C47.1498 60.483 46.799 60.7199 46.3712 60.8892C45.9434 61.0554 45.454 61.1385 44.9031 61.1385ZM56.6007 53.9091L54.0755 61H52.2289L49.7037 53.9091H51.4856L53.1152 59.1765H53.1891L54.8233 53.9091H56.6007ZM61.6551 61.1385C60.9442 61.1385 60.3302 60.9908 59.8131 60.6953C59.2992 60.3968 58.9037 59.9751 58.6267 59.4304C58.3497 58.8826 58.2112 58.2378 58.2112 57.4961C58.2112 56.7667 58.3497 56.1265 58.6267 55.5756C58.9068 55.0217 59.2976 54.5908 59.7993 54.283C60.3009 53.9722 60.8903 53.8168 61.5674 53.8168C62.0044 53.8168 62.4168 53.8875 62.8046 54.0291C63.1955 54.1676 63.5402 54.383 63.8387 54.6754C64.1403 54.9678 64.3773 55.3402 64.5496 55.7926C64.722 56.242 64.8082 56.7775 64.8082 57.3991V57.9116H58.996V56.7852H63.2062C63.2032 56.4651 63.1339 56.1804 62.9985 55.9311C62.8631 55.6787 62.6738 55.4802 62.4307 55.3356C62.1906 55.1909 61.9105 55.1186 61.5905 55.1186C61.2488 55.1186 60.9488 55.2017 60.6903 55.3679C60.4317 55.531 60.2301 55.7464 60.0855 56.0142C59.9439 56.2789 59.8716 56.5697 59.8685 56.8867V57.87C59.8685 58.2824 59.9439 58.6364 60.0947 58.9318C60.2455 59.2242 60.4564 59.4489 60.7272 59.6058C60.998 59.7597 61.315 59.8366 61.6782 59.8366C61.9213 59.8366 62.1414 59.8028 62.3383 59.7351C62.5353 59.6643 62.7061 59.5612 62.8508 59.4258C62.9954 59.2904 63.1047 59.1226 63.1785 58.9226L64.7389 59.098C64.6404 59.5104 64.4527 59.8705 64.1757 60.1783C63.9018 60.483 63.5509 60.7199 63.1231 60.8892C62.6953 61.0554 62.206 61.1385 61.6551 61.1385ZM67.2219 61V53.9091H68.8423V55.0909H68.9162C69.0455 54.6816 69.267 54.3661 69.581 54.1445C69.898 53.9199 70.2596 53.8075 70.6658 53.8075C70.7582 53.8075 70.8613 53.8121 70.9751 53.8214C71.0921 53.8275 71.189 53.8383 71.266 53.8537V55.391C71.1952 55.3664 71.0829 55.3448 70.929 55.3263C70.7782 55.3048 70.632 55.294 70.4904 55.294C70.1857 55.294 69.9118 55.3602 69.6687 55.4925C69.4286 55.6218 69.2393 55.8018 69.1009 56.0327C68.9624 56.2635 68.8931 56.5297 68.8931 56.8313V61H67.2219ZM77.6747 61V51.5455H83.7315V52.9812H79.3874V55.5479H83.3161V56.9837H79.3874V61H77.6747ZM88.195 61.1431C87.7457 61.1431 87.341 61.0631 86.9809 60.9031C86.6239 60.7399 86.3408 60.4999 86.1315 60.1829C85.9253 59.8659 85.8222 59.475 85.8222 59.0103C85.8222 58.6102 85.896 58.2794 86.0438 58.0178C86.1915 57.7562 86.3931 57.5469 86.6485 57.3899C86.904 57.233 87.1917 57.1145 87.5118 57.0344C87.835 56.9513 88.1689 56.8913 88.5136 56.8544C88.9291 56.8113 89.2661 56.7728 89.5246 56.739C89.7831 56.7021 89.9709 56.6467 90.0878 56.5728C90.2078 56.4959 90.2678 56.3774 90.2678 56.2173V56.1896C90.2678 55.8419 90.1647 55.5726 89.9585 55.3817C89.7523 55.1909 89.4553 55.0955 89.0676 55.0955C88.6582 55.0955 88.3335 55.1848 88.0935 55.3633C87.8565 55.5418 87.6965 55.7526 87.6134 55.9957L86.053 55.7741C86.1761 55.3433 86.3792 54.9832 86.6624 54.6939C86.9455 54.4015 87.2918 54.183 87.7011 54.0384C88.1104 53.8906 88.5628 53.8168 89.0583 53.8168C89.3999 53.8168 89.74 53.8568 90.0786 53.9368C90.4171 54.0168 90.7264 54.1491 91.0065 54.3338C91.2865 54.5154 91.5112 54.7631 91.6805 55.0771C91.8528 55.391 91.939 55.7834 91.939 56.2543V61H90.3325V60.0259H90.2771C90.1755 60.2229 90.0324 60.4076 89.8477 60.5799C89.6662 60.7492 89.4369 60.8861 89.1599 60.9908C88.886 61.0923 88.5644 61.1431 88.195 61.1431ZM88.629 59.9151C88.9645 59.9151 89.2553 59.849 89.5015 59.7166C89.7477 59.5812 89.937 59.4027 90.0693 59.1811C90.2048 58.9595 90.2725 58.7179 90.2725 58.4563V57.6207C90.2201 57.6638 90.1309 57.7038 90.0047 57.7408C89.8816 57.7777 89.7431 57.81 89.5892 57.8377C89.4353 57.8654 89.283 57.89 89.1322 57.9116C88.9814 57.9331 88.8506 57.9516 88.7398 57.967C88.4905 58.0008 88.2674 58.0562 88.0704 58.1332C87.8734 58.2101 87.718 58.3178 87.6041 58.4563C87.4903 58.5917 87.4333 58.7672 87.4333 58.9826C87.4333 59.2904 87.5457 59.5227 87.7703 59.6797C87.995 59.8366 88.2812 59.9151 88.629 59.9151ZM100.699 53.9091L98.1741 61H96.3275L93.8023 53.9091H95.5843L97.2139 59.1765H97.2877L98.922 53.9091H100.699ZM105.708 61.1385C105.015 61.1385 104.415 60.9862 103.907 60.6815C103.399 60.3768 103.005 59.9505 102.725 59.4027C102.448 58.8549 102.31 58.2147 102.31 57.4822C102.31 56.7498 102.448 56.1081 102.725 55.5572C103.005 55.0063 103.399 54.5785 103.907 54.2738C104.415 53.9691 105.015 53.8168 105.708 53.8168C106.4 53.8168 107 53.9691 107.508 54.2738C108.016 54.5785 108.408 55.0063 108.685 55.5572C108.965 56.1081 109.105 56.7498 109.105 57.4822C109.105 58.2147 108.965 58.8549 108.685 59.4027C108.408 59.9505 108.016 60.3768 107.508 60.6815C107 60.9862 106.4 61.1385 105.708 61.1385ZM105.717 59.7997C106.092 59.7997 106.406 59.6966 106.659 59.4904C106.911 59.2811 107.099 59.0011 107.222 58.6502C107.348 58.2994 107.411 57.9085 107.411 57.4776C107.411 57.0437 107.348 56.6513 107.222 56.3004C107.099 55.9465 106.911 55.6649 106.659 55.4556C106.406 55.2463 106.092 55.1417 105.717 55.1417C105.332 55.1417 105.012 55.2463 104.757 55.4556C104.504 55.6649 104.315 55.9465 104.189 56.3004C104.066 56.6513 104.004 57.0437 104.004 57.4776C104.004 57.9085 104.066 58.2994 104.189 58.6502C104.315 59.0011 104.504 59.2811 104.757 59.4904C105.012 59.6966 105.332 59.7997 105.717 59.7997ZM111.524 61V53.9091H113.144V55.0909H113.218C113.347 54.6816 113.569 54.3661 113.883 54.1445C114.2 53.9199 114.561 53.8075 114.968 53.8075C115.06 53.8075 115.163 53.8121 115.277 53.8214C115.394 53.8275 115.491 53.8383 115.568 53.8537V55.391C115.497 55.3664 115.385 55.3448 115.231 55.3263C115.08 55.3048 114.934 55.294 114.792 55.294C114.487 55.294 114.214 55.3602 113.97 55.4925C113.73 55.6218 113.541 55.8018 113.403 56.0327C113.264 56.2635 113.195 56.5297 113.195 56.8313V61H111.524ZM117.678 61V53.9091H119.349V61H117.678ZM118.518 52.9027C118.25 52.9027 118.021 52.815 117.83 52.6396C117.643 52.4611 117.549 52.2472 117.549 51.9979C117.549 51.7455 117.644 51.5316 117.835 51.3562C118.026 51.1777 118.254 51.0884 118.518 51.0884C118.783 51.0884 119.009 51.1777 119.197 51.3562C119.388 51.5316 119.483 51.7455 119.483 51.9979C119.483 52.2472 119.388 52.4611 119.197 52.6396C119.009 52.815 118.783 52.9027 118.518 52.9027ZM125.608 53.9091V55.2017H121.532V53.9091H125.608ZM122.539 52.2102H124.21V58.8672C124.21 59.0919 124.244 59.2642 124.311 59.3842C124.382 59.5012 124.474 59.5812 124.588 59.6243C124.702 59.6674 124.828 59.6889 124.967 59.6889C125.071 59.6889 125.167 59.6812 125.253 59.6658C125.342 59.6504 125.41 59.6366 125.456 59.6243L125.738 60.9308C125.648 60.9615 125.521 60.9954 125.355 61.0323C125.191 61.0692 124.991 61.0908 124.754 61.0969C124.336 61.1093 123.959 61.0462 123.623 60.9077C123.288 60.7661 123.022 60.5476 122.825 60.2521C122.631 59.9567 122.535 59.5874 122.539 59.1442V52.2102ZM131.069 61.1385C130.358 61.1385 129.744 60.9908 129.227 60.6953C128.713 60.3968 128.318 59.9751 128.041 59.4304C127.764 58.8826 127.625 58.2378 127.625 57.4961C127.625 56.7667 127.764 56.1265 128.041 55.5756C128.321 55.0217 128.712 54.5908 129.213 54.283C129.715 53.9722 130.304 53.8168 130.981 53.8168C131.418 53.8168 131.831 53.8875 132.219 54.0291C132.61 54.1676 132.954 54.383 133.253 54.6754C133.554 54.9678 133.791 55.3402 133.964 55.7926C134.136 56.242 134.222 56.7775 134.222 57.3991V57.9116H128.41V56.7852H132.62C132.617 56.4651 132.548 56.1804 132.413 55.9311C132.277 55.6787 132.088 55.4802 131.845 55.3356C131.605 55.1909 131.325 55.1186 131.005 55.1186C130.663 55.1186 130.363 55.2017 130.104 55.3679C129.846 55.531 129.644 55.7464 129.5 56.0142C129.358 56.2789 129.286 56.5697 129.283 56.8867V57.87C129.283 58.2824 129.358 58.6364 129.509 58.9318C129.66 59.2242 129.87 59.4489 130.141 59.6058C130.412 59.7597 130.729 59.8366 131.092 59.8366C131.335 59.8366 131.555 59.8028 131.752 59.7351C131.949 59.6643 132.12 59.5612 132.265 59.4258C132.409 59.2904 132.519 59.1226 132.593 58.9226L134.153 59.098C134.054 59.5104 133.867 59.8705 133.59 60.1783C133.316 60.483 132.965 60.7199 132.537 60.8892C132.109 61.0554 131.62 61.1385 131.069 61.1385ZM140.934 61V51.5455H146.991V52.9812H142.647V55.5479H146.576V56.9837H142.647V61H140.934ZM152.05 61.1385C151.358 61.1385 150.758 60.9862 150.25 60.6815C149.742 60.3768 149.348 59.9505 149.068 59.4027C148.791 58.8549 148.653 58.2147 148.653 57.4822C148.653 56.7498 148.791 56.1081 149.068 55.5572C149.348 55.0063 149.742 54.5785 150.25 54.2738C150.758 53.9691 151.358 53.8168 152.05 53.8168C152.743 53.8168 153.343 53.9691 153.851 54.2738C154.359 54.5785 154.751 55.0063 155.028 55.5572C155.308 56.1081 155.448 56.7498 155.448 57.4822C155.448 58.2147 155.308 58.8549 155.028 59.4027C154.751 59.9505 154.359 60.3768 153.851 60.6815C153.343 60.9862 152.743 61.1385 152.05 61.1385ZM152.06 59.7997C152.435 59.7997 152.749 59.6966 153.001 59.4904C153.254 59.2811 153.441 59.0011 153.565 58.6502C153.691 58.2994 153.754 57.9085 153.754 57.4776C153.754 57.0437 153.691 56.6513 153.565 56.3004C153.441 55.9465 153.254 55.6649 153.001 55.4556C152.749 55.2463 152.435 55.1417 152.06 55.1417C151.675 55.1417 151.355 55.2463 151.099 55.4556C150.847 55.6649 150.658 55.9465 150.532 56.3004C150.408 56.6513 150.347 57.0437 150.347 57.4776C150.347 57.9085 150.408 58.2994 150.532 58.6502C150.658 59.0011 150.847 59.2811 151.099 59.4904C151.355 59.6966 151.675 59.7997 152.06 59.7997ZM160.96 61.1385C160.267 61.1385 159.667 60.9862 159.159 60.6815C158.651 60.3768 158.257 59.9505 157.977 59.4027C157.7 58.8549 157.562 58.2147 157.562 57.4822C157.562 56.7498 157.7 56.1081 157.977 55.5572C158.257 55.0063 158.651 54.5785 159.159 54.2738C159.667 53.9691 160.267 53.8168 160.96 53.8168C161.652 53.8168 162.252 53.9691 162.76 54.2738C163.268 54.5785 163.66 55.0063 163.937 55.5572C164.217 56.1081 164.357 56.7498 164.357 57.4822C164.357 58.2147 164.217 58.8549 163.937 59.4027C163.66 59.9505 163.268 60.3768 162.76 60.6815C162.252 60.9862 161.652 61.1385 160.96 61.1385ZM160.969 59.7997C161.344 59.7997 161.658 59.6966 161.911 59.4904C162.163 59.2811 162.351 59.0011 162.474 58.6502C162.6 58.2994 162.663 57.9085 162.663 57.4776C162.663 57.0437 162.6 56.6513 162.474 56.3004C162.351 55.9465 162.163 55.6649 161.911 55.4556C161.658 55.2463 161.344 55.1417 160.969 55.1417C160.584 55.1417 160.264 55.2463 160.009 55.4556C159.756 55.6649 159.567 55.9465 159.441 56.3004C159.318 56.6513 159.256 57.0437 159.256 57.4776C159.256 57.9085 159.318 58.2994 159.441 58.6502C159.567 59.0011 159.756 59.2811 160.009 59.4904C160.264 59.6966 160.584 59.7997 160.969 59.7997ZM169.407 61.1246C168.85 61.1246 168.351 60.9815 167.911 60.6953C167.471 60.4091 167.123 59.9936 166.868 59.4489C166.613 58.9041 166.485 58.2424 166.485 57.4638C166.485 56.6759 166.614 56.0111 166.873 55.4695C167.134 54.9247 167.487 54.5138 167.93 54.2369C168.373 53.9568 168.867 53.8168 169.412 53.8168C169.827 53.8168 170.169 53.8875 170.437 54.0291C170.704 54.1676 170.917 54.3353 171.074 54.5323C171.231 54.7262 171.352 54.9093 171.438 55.0817H171.508V51.5455H173.183V61H171.54V59.8828H171.438C171.352 60.0552 171.227 60.2383 171.064 60.4322C170.901 60.623 170.686 60.7861 170.418 60.9215C170.15 61.0569 169.813 61.1246 169.407 61.1246ZM169.873 59.7536C170.227 59.7536 170.529 59.6581 170.778 59.4673C171.027 59.2734 171.217 59.0041 171.346 58.6594C171.475 58.3147 171.54 57.9131 171.54 57.4545C171.54 56.996 171.475 56.5974 171.346 56.2589C171.22 55.9203 171.032 55.6572 170.783 55.4695C170.537 55.2817 170.233 55.1879 169.873 55.1879C169.501 55.1879 169.19 55.2848 168.941 55.4787C168.691 55.6726 168.504 55.9403 168.378 56.282C168.251 56.6236 168.188 57.0144 168.188 57.4545C168.188 57.8977 168.251 58.2932 168.378 58.641C168.507 58.9857 168.696 59.258 168.945 59.4581C169.198 59.6551 169.507 59.7536 169.873 59.7536Z" fill="#09051C"/>
<defs>
<linearGradient id="paint0_linear_169_32117" x1="-2.66594e-07" y1="-3.31579" x2="172.15" y2="89.5426" gradientUnits="userSpaceOnUse">
<stop stop-color="#53E88B"/>
<stop offset="1" stop-color="#15BE77"/>
</linearGradient>
</defs>
</svg>
