<svg width="375" height="436" viewBox="0 0 375 436" fill="none" xmlns="http://www.w3.org/2000/svg">
<path d="M305.884 343.594C223.094 391.393 103.841 359.48 56.7338 277.888C9.62677 196.296 8.62086 115.671 91.4117 67.8721C174.203 20.0727 235.201 49.2972 282.308 130.889C329.415 212.481 388.675 295.795 305.884 343.594Z" fill="#FBDF6A" fill-opacity="0.21"/>
<path d="M328.651 95.9405C316.813 85.7073 315.889 64.9207 326.565 52.5699C337.241 40.2192 350.095 35.222 361.933 45.4552C373.771 55.6885 372.179 67.095 361.503 79.4457C350.827 91.7964 340.49 106.174 328.651 95.9405Z" fill="#FBDF6A" fill-opacity="0.21"/>
<path d="M361.79 337.124C372.855 348.189 368.689 372.569 353.279 387.978C337.87 403.388 317.415 405.646 310.737 399.26C304.059 392.874 304.377 374.644 319.787 359.235C335.196 343.825 350.725 326.059 361.79 337.124Z" fill="#FBDF6A" fill-opacity="0.21"/>
<path d="M-0.130309 277.266C14.9847 273.216 34.0148 289.013 39.655 310.063C45.2953 331.113 37.024 349.957 28.1545 352.547C19.285 355.136 3.65664 345.747 -1.98364 324.697C-7.62391 303.647 -15.2453 281.316 -0.130309 277.266Z" fill="#FBDF6A" fill-opacity="0.21"/>
<path d="M81.2937 125.405L130.076 199.175C130.076 199.175 157.692 197.483 168.181 182.315L142.464 98.2233C142.464 98.2233 100.26 121.455 81.2937 125.405Z" fill="#BA5F49"/>
<g style="mix-blend-mode:multiply" opacity="0.75">
<path d="M145.779 108.786L142.532 98.171C142.532 98.171 100.327 121.403 81.3609 125.352L91.7288 141.035C113.938 135.439 126.664 128.012 145.779 108.786Z" fill="#8F5243"/>
</g>
<path d="M148.887 143.889C144.627 134.882 133.598 131.162 124.253 135.579C114.908 139.996 110.785 150.878 115.045 159.885C119.305 168.892 130.334 172.612 139.679 168.195C149.024 163.778 153.146 152.896 148.887 143.889Z" fill="#CCB1B1"/>
<path d="M144.698 145.416C146.203 148.805 146.304 152.651 144.981 156.112C143.657 159.574 141.015 162.369 137.634 163.886C135.998 164.744 134.205 165.261 132.363 165.406C130.521 165.551 128.668 165.322 126.917 164.733C125.165 164.143 123.551 163.205 122.171 161.975C120.791 160.745 119.674 159.249 118.888 157.576C118.102 155.904 117.662 154.089 117.595 152.242C117.528 150.395 117.836 148.554 118.5 146.83C119.163 145.106 120.169 143.534 121.457 142.209C122.744 140.884 124.287 139.833 125.991 139.121C129.307 137.485 133.136 137.229 136.641 138.409C140.147 139.588 143.043 142.108 144.698 145.416Z" fill="#F0E1DD"/>
<path d="M128.081 157.564C127.788 156.519 127.807 155.411 128.136 154.377C128.464 153.343 129.088 152.428 129.93 151.744C130.932 150.697 132.317 150.111 133.312 149.124C134.306 148.137 134.071 146.613 133.882 145.216C133.704 144.039 133.459 142.872 133.15 141.722C129.952 141.926 126.61 144.841 125.071 149.175C123.183 154.455 124.668 159.829 128.404 161.158C128.884 161.325 129.386 161.42 129.893 161.438C129.142 160.221 128.533 158.921 128.081 157.564Z" fill="#8F4B46"/>
<path d="M135.211 141.939C135.44 142.862 135.639 143.818 135.809 144.805C136.075 145.709 136.131 146.661 135.974 147.59C135.817 148.519 135.45 149.399 134.902 150.165C133.435 151.763 129.883 153.08 129.749 155.702C129.928 157.683 130.712 159.561 131.997 161.081C133.56 160.459 134.963 159.492 136.102 158.254C137.241 157.015 138.086 155.536 138.574 153.925C140.415 148.654 138.943 143.297 135.211 141.939Z" fill="#8F4B46"/>
<g style="mix-blend-mode:screen">
<path d="M157.81 186.427C159.145 185.392 160.768 184.134 162.425 182.85C157.419 169.022 141.158 123.982 135.648 108.109C133.036 109.566 130.341 110.868 127.576 112.009C133.304 127.361 149.977 170.837 156.95 186.958C157.286 186.833 157.552 186.653 157.81 186.427Z" fill="#8F524D"/>
</g>
<g style="mix-blend-mode:multiply" opacity="0.55">
<path d="M123.668 155.921C115.465 148.199 108.668 138.765 101.349 130.195C99.6395 128.284 98.0669 126.255 96.6433 124.122C93.0907 125.517 89.4364 126.639 85.7125 127.476L130.381 195.31C130.381 195.31 155.329 193.981 164.798 180.117L161.913 170.738C148.082 171.71 134.517 166.113 123.668 155.921Z" fill="#8B4B3A"/>
</g>
<g style="mix-blend-mode:multiply" opacity="0.55">
<path d="M103.884 121.733C101.254 122.878 95.6693 124.471 93.2025 125.408C100.84 138.441 135.096 193.118 136.071 194.691C139.219 194.146 142.329 193.4 145.381 192.457C142.541 188.025 105.523 125.174 103.884 121.733Z" fill="#A75640"/>
</g>
<g style="mix-blend-mode:screen">
<path d="M143.908 130.813C144.176 131.722 144.171 132.691 143.891 133.596C143.612 134.502 143.071 135.305 142.337 135.905C141.603 136.504 140.709 136.874 139.765 136.966C138.822 137.059 137.872 136.871 137.035 136.427C136.198 135.982 135.51 135.299 135.059 134.466C134.607 133.632 134.412 132.683 134.498 131.739C134.583 130.795 134.945 129.897 135.539 129.158C136.133 128.42 136.931 127.873 137.835 127.586C138.445 127.399 139.087 127.334 139.722 127.394C140.358 127.455 140.976 127.641 141.54 127.94C142.104 128.24 142.603 128.648 143.01 129.141C143.416 129.634 143.721 130.202 143.908 130.813Z" fill="#B28784"/>
</g>
<g style="mix-blend-mode:screen">
<path d="M143.313 122.014C143.444 122.548 143.416 123.108 143.233 123.627C143.05 124.145 142.72 124.598 142.283 124.931C141.846 125.264 141.321 125.463 140.773 125.502C140.225 125.541 139.677 125.419 139.197 125.152C138.717 124.885 138.325 124.483 138.07 123.996C137.814 123.509 137.706 122.959 137.759 122.412C137.812 121.865 138.023 121.345 138.367 120.917C138.711 120.488 139.172 120.169 139.694 119.999C140.064 119.891 140.452 119.858 140.835 119.901C141.217 119.944 141.588 120.063 141.924 120.251C142.261 120.438 142.557 120.691 142.795 120.993C143.034 121.296 143.21 121.643 143.313 122.014Z" fill="#B28784"/>
</g>
<path d="M74.6918 120.937L74.9128 132.57C74.9128 132.57 95.1199 133.155 118.691 119.679C142.263 106.204 150.709 98.1424 150.709 98.1424L142.138 88.0255C142.138 88.0255 119.677 85.1262 74.6918 120.937Z" fill="#F2F2F2"/>
<g style="mix-blend-mode:screen" opacity="0.9">
<path d="M83.8115 126.594C84.1405 122.484 84.6934 118.395 85.4677 114.345L85.7441 112.642C82.2711 115.144 78.5631 117.936 74.7309 120.987L74.9126 132.57C77.6536 132.567 80.3906 132.365 83.1018 131.963C83.2478 130.163 83.4847 128.371 83.8115 126.594Z" fill="#F2F2F2"/>
</g>
<g style="mix-blend-mode:screen" opacity="0.9">
<path d="M123.728 116.751C143.473 105.077 150.675 98.1687 150.675 98.1687L142.137 88.0256C138.191 87.8615 134.245 88.3656 130.466 89.5166C128.76 98.6633 125.935 107.622 123.728 116.751Z" fill="#F2F2F2"/>
</g>
<path d="M74.6918 120.937L74.9129 132.57C74.9129 132.57 95.12 133.155 118.691 119.679C142.263 106.204 150.709 98.1423 150.709 98.1423L142.138 88.0254C142.138 88.0254 123.448 110.524 74.6918 120.937Z" fill="#DEDEDE"/>
<g style="mix-blend-mode:screen" opacity="0.65">
<path d="M131.816 97.0536C129.534 98.8223 126.73 100.616 123.513 102.541C124.729 106.066 126.319 109.653 127.169 112.216C127.385 112.915 127.619 113.6 127.888 114.366C132.465 111.578 136.221 109.127 139.297 106.986C136.572 103.856 134.072 100.537 131.816 97.0536Z" fill="#C7CBC9"/>
</g>
<g style="mix-blend-mode:multiply" opacity="0.35">
<path d="M104.454 111.923C96.4426 115.144 88.2052 117.772 79.8083 119.787C79.8545 120.266 79.9007 120.744 79.9168 121.219C80.0877 124.931 79.8984 128.598 80.377 132.288C91.688 131.07 102.697 127.881 112.906 122.863C108.938 120.271 105.961 116.416 104.454 111.923Z" fill="#8F838D"/>
</g>
<path d="M82.1418 104.956L83.8023 116.421C94.0886 114.093 103.984 110.291 113.182 105.132C128.576 96.5046 132.631 91.8194 132.631 91.8194L126.33 83.1652C126.33 83.1652 114.495 82.2107 97.7605 92.1474C91.9238 95.5841 86.655 99.9047 82.1418 104.956Z" fill="#F2F2F2"/>
<g style="mix-blend-mode:screen" opacity="0.9">
<path d="M126.011 86.7696C126.295 86.333 126.552 85.8625 126.81 85.392C126.98 85.0384 127.201 84.7119 127.466 84.4231L126.404 83.053C124.078 82.9802 121.75 83.1758 119.469 83.6358C119.361 85.2082 119.22 86.8067 119.04 88.3545C118.859 89.9023 118.66 91.3563 118.412 92.9565C121.072 91.0562 123.61 88.9898 126.011 86.7696Z" fill="#F2F2F2"/>
</g>
<g style="mix-blend-mode:screen" opacity="0.9">
<path d="M107.032 99.5014C108.146 99.0176 109.236 98.4699 110.311 97.9354C109.716 97.1038 109.429 96.0916 109.499 95.072C109.638 92.0397 110.179 88.967 110.572 85.9822C109.232 86.4524 107.82 87.005 106.417 87.6046C105.45 91.8737 104.823 96.2317 104.152 100.569C105.055 100.302 106.05 99.9104 107.032 99.5014Z" fill="#F2F2F2"/>
</g>
<g style="mix-blend-mode:screen" opacity="0.9">
<path d="M86.954 105.369C87.1376 104.721 87.3412 104.076 87.5648 103.433C87.9914 101.749 88.4348 100.052 88.9045 98.3881C86.4718 100.386 84.2098 102.582 82.1419 104.956L82.3905 106.848C83.8924 106.307 85.4035 105.812 86.954 105.369Z" fill="#F2F2F2"/>
</g>
<path d="M108.632 94.9315C100.356 99.2911 91.5517 102.565 82.4373 104.673L82.116 104.922L83.8027 116.421C94.089 114.093 103.984 110.291 113.182 105.132C128.577 96.5047 132.631 91.8195 132.631 91.8195L126.422 83.2836C120.869 87.7138 114.913 91.6135 108.632 94.9315Z" fill="#DEDEDE"/>
<g style="mix-blend-mode:screen" opacity="0.65">
<path d="M119.947 88.0579C118.178 89.2666 116.51 90.3967 114.759 91.4553C116.162 94.836 118.011 98.0599 119.623 101.223C123.475 98.8608 126.285 96.8998 128.289 95.4007C125.647 92.8996 122.763 90.5049 119.947 88.0579Z" fill="#C7CBC9"/>
</g>
<g style="mix-blend-mode:multiply" opacity="0.35">
<path d="M104.108 101.28C103.335 100.282 102.535 99.2504 101.82 98.1531C95.6208 100.984 89.1413 103.156 82.488 104.634L82.1667 104.882L83.8027 116.421C92.6738 114.421 101.258 111.316 109.355 107.178C107.44 105.366 105.685 103.393 104.108 101.28Z" fill="#8F838D"/>
</g>
<path d="M88.6098 101.08C93.1734 97.3413 98.108 94.0795 103.336 91.3461C108.093 89.1915 113.056 87.5228 118.148 86.3654C113.675 89.5486 109 92.439 104.153 95.0183C99.1271 97.4163 93.9322 99.4424 88.6098 101.08Z" fill="#A1A8A6"/>
<g style="mix-blend-mode:multiply">
<path d="M98.415 93.7249C97.5718 94.243 96.803 95.1366 95.9467 95.6378C94.3838 97.0047 92.9311 98.4926 91.6021 100.088C93.7384 99.3528 96.7421 98.2704 100.324 96.7125C99.8813 93.103 98.9125 93.5289 98.415 93.7249Z" fill="#A1A8A6"/>
</g>
<path d="M94.1341 98.3965C93.618 98.4986 93.1009 98.0059 92.8542 97.3036C92.135 95.1535 91.084 91.5277 91.5933 90.9977C91.9519 89.6097 99.3444 93.4922 99.3065 93.7923C99.1663 94.659 98.7957 96.6249 98.2792 96.9711C96.9691 97.6332 95.5745 98.1128 94.1341 98.3965Z" fill="#DEDEDE"/>
<g style="mix-blend-mode:screen" opacity="0.65">
<path d="M92.1616 90.7196C94.0936 91.1175 96.1973 93.413 98.2447 96.9976C98.7688 96.5915 99.1488 94.6725 99.272 93.8189C99.3438 93.4925 93.2522 90.4159 92.1616 90.7196Z" fill="#DEDEDE"/>
</g>
<path d="M307.797 121.713C301.864 115.233 260.339 116.54 240.229 131.487C233.371 136.579 229.344 144.066 223.902 149.647C197.098 177.664 206.622 197.948 228.8 209.9C241.317 216.625 267.495 216.271 289.7 203.665C311.906 191.059 320.124 180.142 322.355 167.481C326.682 140.309 307.797 121.713 307.797 121.713ZM293.401 168.788C290.081 168.08 285.238 166.474 280.258 165.548C280.104 165.561 279.949 165.561 279.795 165.548C276.585 165.662 273.386 165.98 270.217 166.501C268.955 167.484 267.637 168.393 266.271 169.224C263.622 170.266 261.366 172.113 259.822 174.506C259.276 175.427 258.555 176.232 257.699 176.874C256.56 178.66 255.55 180.525 254.678 182.456C250.134 192.502 245.753 177.664 241.29 174.097C238.895 170.122 261.481 145.4 275.55 147.796C277.396 147.831 279.228 148.124 280.993 148.667L281.564 148.885C286.707 149.62 291.823 150.9 296.884 151.989C307.688 154.385 304.177 171.238 293.401 168.87V168.788Z" fill="#EE9843"/>
<g style="mix-blend-mode:multiply" opacity="0.65">
<path d="M306.872 121.032C298.409 115.369 259.523 117.139 240.229 131.487C233.372 136.579 229.344 144.066 223.902 149.648C202.949 171.429 204.228 188.691 216.283 200.834L217.398 201.814C222.841 202.713 228.882 201.814 233.508 202.195C241.671 203.094 249.835 211.616 257.999 207.368C265.7 203.339 271.333 203.257 279.768 202.468C287.361 201.732 289.755 192.72 297.293 190.896C300.341 190.188 306.654 190.379 307.008 185.995C307.015 183.902 307.489 181.837 308.396 179.951C311.933 173.934 321.076 174.288 318.845 166.12C316.94 159.286 318.056 151.907 321.566 147.878C319.226 133.148 309.702 124.19 306.872 121.032ZM293.266 168.87C289.946 168.162 285.102 166.555 280.122 165.63C279.968 165.643 279.814 165.643 279.66 165.63C276.45 165.743 273.25 166.062 270.081 166.583C268.819 167.565 267.502 168.474 266.135 169.305C263.486 170.348 261.23 172.195 259.686 174.587C259.14 175.508 258.419 176.313 257.563 176.956C256.424 178.742 255.415 180.607 254.543 182.538C252.339 187.384 250.216 186.458 248.066 183.79C245.127 182.047 242.216 174.723 239.25 172.355C236.855 168.407 259.441 143.658 273.51 146.054C275.354 146.102 277.184 146.395 278.952 146.925C279.158 146.99 279.358 147.072 279.551 147.17C284.694 147.878 289.81 149.157 294.871 150.274C296.843 150.638 298.603 151.738 299.797 153.35C306.817 157.952 303.008 170.993 293.402 168.87H293.266Z" fill="#D98B43"/>
</g>
<path d="M215.63 184.334C216.283 185.015 216.936 185.696 217.616 186.349L219.711 185.478C225.535 183.082 230.759 179.434 236.61 177.038L242.052 174.832C241.864 174.621 241.654 174.429 241.427 174.261C239.032 170.285 261.618 145.563 275.687 147.959C277.533 147.994 279.364 148.288 281.129 148.831L281.701 149.049C284.639 149.484 287.578 150.083 290.517 150.709C292.966 147.605 295.388 144.393 298.055 141.371C302.215 136.125 306.842 131.268 311.879 126.859C310.621 125.064 309.258 123.346 307.797 121.713C301.865 115.233 260.339 116.54 240.229 131.487C233.372 136.579 229.344 144.066 223.902 149.647C212.527 161.518 208.119 172.436 208.473 181.966C209.768 181.649 211.126 181.703 212.391 182.122C213.657 182.541 214.779 183.307 215.63 184.334Z" fill="#822A00"/>
<path d="M319.172 167.835C318.737 164.813 315.172 159.531 315.634 156.672C316.097 153.813 319.798 151.227 321.077 148.804C323.499 144.529 321.077 139.519 319.58 135.19C313.675 118.146 300.532 106.384 270.19 108.181C254.489 109.08 223.93 116.894 208.038 146.299C198.513 163.887 201.153 176.466 209.725 188.691C212.963 193.319 222.542 201.188 229.399 200.48C232.746 200.099 234.433 198.247 238.161 199.01C240.968 199.657 243.592 200.932 245.835 202.74C251.849 207.123 256.04 206.225 262.544 202.74C266.136 200.752 267.523 199.445 271.632 200.344C274.581 201.147 277.708 200.985 280.558 199.881C286.98 197.158 285.756 187.438 294.817 188.99C298.11 189.508 301.321 190.379 303.661 187.357C306.001 184.335 303.335 181.312 304.913 178.29C308.26 171.974 320.75 178.454 319.172 167.835ZM239.277 153.051C250.788 128.71 272.966 139.791 275.061 144.229C283.361 161.518 227.903 177.228 239.277 153.051Z" fill="#A73D22"/>
<g style="mix-blend-mode:screen" opacity="0.75">
<path d="M232.664 154.14C233.613 146.442 236.414 139.089 240.828 132.713C243.099 129.54 246.159 127.016 249.706 125.392C253.253 123.769 257.162 123.101 261.046 123.456C271.278 124.953 278.707 135.326 289.02 136.252C291.134 136.503 293.277 136.221 295.255 135.432C297.232 134.642 298.98 133.371 300.341 131.732C301.634 130.043 302.284 127.948 302.175 125.823C302.065 123.698 301.203 121.681 299.742 120.134C298.364 118.995 296.773 118.144 295.062 117.629C280.696 112.399 264.952 112.376 250.572 117.565C236.191 122.754 224.086 132.826 216.364 146.027C213.359 150.391 211.964 155.666 212.418 160.947C213.289 166.12 218.269 170.857 223.303 169.768C224.858 169.326 226.291 168.53 227.49 167.444C228.688 166.358 229.621 165.011 230.215 163.506C231.429 160.502 232.252 157.354 232.664 154.14Z" fill="#B1523A"/>
</g>
<g style="mix-blend-mode:screen" opacity="0.75">
<path d="M271.496 169.305C262.026 173.743 251.06 173.444 240.637 174.342C238.077 174.456 235.559 175.037 233.208 176.058C232.04 176.582 231.023 177.394 230.252 178.417C229.481 179.441 228.982 180.643 228.8 181.911C228.473 186.349 233.263 189.453 237.617 190.352C246.379 192.122 255.359 189.208 263.768 186.186C271.927 183.623 279.7 179.959 286.871 175.295C294.078 170.525 299.212 163.199 301.239 154.794C301.833 152.337 301.681 149.758 300.803 147.388C299.796 145.074 297.402 142.678 294.98 143.358C286.272 145.7 286.871 162.118 271.496 169.305Z" fill="#B1523A"/>
</g>
<path d="M286.163 118.99C285.343 118.939 284.527 119.139 283.822 119.562L278.815 121.931L280.258 124.49C282.749 122.843 285.631 121.885 288.612 121.713C288.068 120.542 287.387 119.29 286.163 118.99Z" fill="#CC3131"/>
<path d="M313.702 140.935C312.883 140.857 312.062 141.048 311.362 141.48L306.354 143.848L307.797 146.408C310.271 144.728 313.142 143.723 316.124 143.494C315.607 142.405 314.926 141.153 313.702 140.935Z" fill="#CC3131"/>
<path d="M311.852 150.437L306.219 148.613C303.757 151.425 301.131 154.089 298.354 156.59C300.813 156.998 303.095 158.125 304.913 159.83C306.815 156.415 309.147 153.259 311.852 150.437Z" fill="#EAD4AF"/>
<path d="M221.698 166.338L216.065 164.541C213.61 167.351 210.984 170.006 208.201 172.491C210.662 172.878 212.954 173.986 214.786 175.676C216.69 172.286 219.013 169.149 221.698 166.338Z" fill="#EAD4AF"/>
<path d="M278.381 177.827C277.595 177.412 276.709 177.223 275.823 177.283H270.707C270.271 179.107 269.809 180.904 269.346 182.728C272.819 181.641 276.473 181.261 280.095 181.612C280.104 180.894 279.955 180.183 279.658 179.529C279.362 178.875 278.926 178.294 278.381 177.827Z" fill="#FFCC00"/>
<path d="M291.36 144.529C290.524 144.09 289.579 143.901 288.639 143.984H283.55L282.162 149.43C285.613 148.377 289.242 148.034 292.829 148.422C292.879 147.706 292.774 146.987 292.52 146.315C292.267 145.643 291.871 145.034 291.36 144.529Z" fill="#FFCC00"/>
<path d="M223.63 151.935C223.63 153.459 223.875 154.984 223.984 156.536L234.488 154.195C233.892 153.048 233.664 151.745 233.834 150.464C230.498 151.33 227.075 151.823 223.63 151.935Z" fill="#14B661"/>
<path d="M241.045 130.072L232.61 133.693C232.285 135.122 232.22 136.597 232.419 138.049C235.473 136.183 238.796 134.797 242.27 133.938C241.505 132.791 241.08 131.45 241.045 130.072Z" fill="#CC3131"/>
<path d="M255.604 130.915L259.767 129.118C259.078 128.729 258.479 128.197 258.01 127.559C257.541 126.921 257.213 126.19 257.046 125.416C256.752 123.882 256.025 122.465 254.951 121.332L251.767 122.04C253.073 125.007 254.298 127.948 255.604 130.915Z" fill="#FFCC00"/>
<path d="M232.61 167.236L236.8 165.439C236.104 165.058 235.5 164.529 235.03 163.889C234.56 163.25 234.235 162.515 234.079 161.736C233.785 160.203 233.058 158.785 231.984 157.652L228.8 158.36L232.61 167.236Z" fill="#FFCC00"/>
<path d="M275.823 130.534L273.102 129.118L267.033 133.856L271.55 135.871L275.823 130.534Z" fill="#EAD4AF"/>
<path d="M248.284 189.208L245.563 187.792L239.495 192.503L244.039 194.517L248.284 189.208Z" fill="#EAD4AF"/>
<path d="M292.585 131.215C292.516 130.811 292.334 130.435 292.059 130.131C291.784 129.827 291.429 129.608 291.034 129.5C290.636 129.392 290.214 129.416 289.832 129.568C289.449 129.72 289.126 129.993 288.911 130.344C288.788 130.588 288.688 130.843 288.612 131.106C287.905 133.675 287.849 136.379 288.448 138.975C289.743 138.357 291.195 138.149 292.612 138.376C292.031 137.01 291.888 135.497 292.204 134.047C292.528 133.14 292.658 132.175 292.585 131.215Z" fill="#14B661"/>
<path d="M272.803 185.369C272.72 184.967 272.53 184.594 272.252 184.292C271.974 183.99 271.619 183.769 271.225 183.654C270.828 183.559 270.412 183.593 270.036 183.749C269.659 183.906 269.342 184.177 269.129 184.525C268.975 184.754 268.872 185.014 268.83 185.287C268.123 187.856 268.067 190.56 268.667 193.156C269.951 192.506 271.408 192.278 272.83 192.503C272.248 191.127 272.106 189.606 272.422 188.146C272.729 187.254 272.859 186.311 272.803 185.369Z" fill="#14B661"/>
<path d="M240.61 182.238L244.747 182.864C245.182 180.142 245.617 177.555 246.08 174.887L242.869 176.167C242.134 178.127 241.372 180.196 240.61 182.238Z" fill="#CC3131"/>
<path d="M218.65 178.671C218.885 178.82 219.165 178.878 219.439 178.835L224.637 178.426C224.338 175.248 224.69 172.043 225.671 169.006C224.17 169.795 222.519 170.258 220.827 170.367C220.12 172.79 219.385 175.214 218.677 177.637C218.487 177.991 218.405 178.426 218.65 178.671Z" fill="#FFCC00"/>
<path d="M300.858 171.456C300.967 171.534 301.091 171.589 301.222 171.617C301.353 171.645 301.488 171.646 301.62 171.62L306.817 171.211C306.519 168.039 306.843 164.839 307.769 161.791C306.279 162.583 304.637 163.047 302.953 163.152C302.245 165.575 301.511 168.026 300.776 170.449C300.694 170.721 300.613 171.211 300.858 171.456Z" fill="#FFCC00"/>
<path d="M294.98 176.602C294.958 173.782 295.562 170.992 296.749 168.434H292.558L289.837 175.949L294.98 176.602Z" fill="#14B661"/>
<path d="M254.108 195.525L258.816 195.743C259.143 192.867 259.716 190.025 260.53 187.248C260.28 187.061 259.985 186.942 259.674 186.904C259.364 186.866 259.049 186.909 258.761 187.03L254.108 195.525Z" fill="#6BC3C3"/>
<path d="M211.575 154.712L209.343 162.063L213.507 162.39L214.867 154.222L211.575 154.712Z" fill="#CC3131"/>
<path d="M223.957 140.309C223.034 140.431 222.16 140.797 221.426 141.37L217.426 144.093L220.147 147.442C222.009 145.063 224.483 143.237 227.304 142.16C226.466 141.138 225.268 140.475 223.957 140.309Z" fill="#6BC3C3"/>
<path d="M235.738 175.622C234.815 175.744 233.942 176.111 233.208 176.684L229.208 179.407L231.929 182.755C233.838 180.319 236.38 178.455 239.276 177.365C238.368 176.346 237.099 175.721 235.738 175.622Z" fill="#6BC3C3"/>
<path d="M305.947 136.279C306.392 136.449 306.86 136.55 307.335 136.579C307.686 136.564 308.027 136.457 308.323 136.267C308.619 136.078 308.859 135.813 309.02 135.5C309.18 135.188 309.255 134.838 309.236 134.487C309.218 134.136 309.106 133.796 308.913 133.502C306.548 132.625 304.285 131.493 302.165 130.126C301.049 131.324 299.933 132.522 298.845 133.747L305.947 136.279Z" fill="#6BC3C3"/>
<path d="M284.775 171.946C285.213 172.136 285.685 172.238 286.163 172.246C286.517 172.24 286.864 172.138 287.165 171.95C287.467 171.763 287.711 171.497 287.874 171.181C288.036 170.865 288.109 170.511 288.085 170.157C288.062 169.802 287.943 169.461 287.741 169.169C285.378 168.287 283.116 167.155 280.992 165.793L277.672 169.414L284.775 171.946Z" fill="#6BC3C3"/>
<path d="M273.21 127.784C273.649 127.976 274.119 128.087 274.598 128.111C274.94 128.109 275.277 128.021 275.577 127.854C275.876 127.688 276.129 127.448 276.312 127.158C276.491 126.853 276.586 126.505 276.586 126.151C276.586 125.797 276.491 125.449 276.312 125.143C273.902 124.247 271.595 123.097 269.427 121.713L266.107 125.252L273.21 127.784Z" fill="#6BC3C3"/>
<path d="M243.413 144.965C243.849 145.16 244.322 145.262 244.8 145.264C245.155 145.256 245.501 145.154 245.802 144.967C246.104 144.78 246.35 144.516 246.515 144.202C246.689 143.895 246.78 143.548 246.78 143.195C246.78 142.842 246.689 142.495 246.515 142.187C244.149 141.311 241.887 140.178 239.766 138.811L236.446 142.433L243.413 144.965Z" fill="#6BC3C3"/>
<path d="M270.679 114.906C268.663 116.163 266.414 116.996 264.066 117.357C264.23 118.555 264.393 119.753 264.529 120.95C267.178 119.497 270.031 118.451 272.992 117.847C271.907 117.16 271.091 116.122 270.679 114.906Z" fill="#14B661"/>
<path d="M252.883 171.102C251.595 171.018 250.339 170.662 249.199 170.057C248.059 169.451 247.061 168.61 246.27 167.59L243.141 170.912C246.059 171.947 248.81 173.405 251.304 175.241C251.876 173.879 252.393 172.491 252.883 171.102Z" fill="#EAD4AF"/>
<path d="M246.978 124.081C245.691 123.994 244.436 123.636 243.297 123.031C242.158 122.426 241.159 121.587 240.365 120.569L237.236 123.864C240.145 124.931 242.893 126.397 245.4 128.22C245.889 126.831 246.434 125.47 246.978 124.081Z" fill="#EAD4AF"/>
<path d="M293.021 183.572C291.734 183.482 290.481 183.122 289.342 182.518C288.203 181.913 287.204 181.075 286.408 180.06L283.279 183.354C286.191 184.416 288.939 185.882 291.442 187.711L293.021 183.572Z" fill="#EAD4AF"/>
<path d="M280.911 164.078C281.121 164.338 281.393 164.541 281.702 164.669C282.011 164.798 282.347 164.847 282.68 164.813C283.014 164.768 283.33 164.636 283.597 164.43C283.865 164.225 284.074 163.953 284.203 163.642C284.04 161.355 283.904 159.068 283.741 156.781C282.593 157.101 281.487 157.558 280.448 158.142C279.89 159.794 279.89 161.582 280.448 163.234C280.574 163.53 280.729 163.813 280.911 164.078Z" fill="#CC3131"/>
<path d="M264.775 167.291C264.53 166.964 263.986 167.046 263.605 167.291L260.666 167.999C260.04 170.531 259.441 173.063 258.815 175.622H262.734C263.441 173.172 264.122 170.694 264.802 168.216C264.874 168.072 264.909 167.912 264.905 167.75C264.9 167.589 264.855 167.431 264.775 167.291Z" fill="#14B661"/>
<path d="M223.604 189.78C226.69 189.574 229.789 189.934 232.747 190.842C233.046 189.154 233.373 187.466 233.699 185.778C230.983 186.021 228.251 186.021 225.536 185.778C224.882 187.221 224.229 188.5 223.604 189.78Z" fill="#14B661"/>
<path d="M188.173 225.4C183.225 228.763 182.768 236.29 178.86 240.821C174.951 245.351 168.331 246.456 165.442 251.489C162.552 256.521 165.185 263.585 165.553 269.749C165.368 275.724 164.314 281.64 162.424 287.312C161.061 293.048 160.545 299.438 163.709 304.137C165.64 306.656 168.24 308.581 171.211 309.693C174.183 310.805 177.408 311.06 180.518 310.428C186.839 309.024 192.848 306.467 198.244 302.885C214.239 294.201 229.494 284.217 243.856 273.034C247.217 270.699 250.044 267.676 252.149 264.166C253.139 262.428 253.609 260.442 253.505 258.445C253.4 256.448 252.725 254.523 251.559 252.898C249.417 250.548 245.951 249.954 243.534 247.893C239.151 244.187 238.69 237.998 233.207 234.955C228.465 232.939 223.351 231.948 218.199 232.046C214.993 231.905 211.827 231.284 208.805 230.203C205.835 228.984 203.328 226.766 200.198 225.405C198.355 224.397 196.288 223.868 194.187 223.867C192.086 223.866 190.018 224.393 188.173 225.4Z" fill="#D2923D"/>
<g style="mix-blend-mode:screen" opacity="0.32">
<path d="M185.025 268.771C193.961 265.283 191.743 259.384 195.374 252.307C197.32 248.183 200.408 244.703 204.272 242.282C208.267 239.58 213.093 238.388 217.886 238.919C223.323 239.905 227.457 243.809 232.736 245.017C235.39 245.564 238.147 245.299 240.649 244.256C238.546 240.894 237.192 237.072 233.264 234.872C228.522 232.855 223.408 231.864 218.256 231.962C215.05 231.821 211.883 231.2 208.862 230.119C205.892 228.9 203.385 226.683 200.255 225.321C198.407 224.336 196.342 223.83 194.248 223.848C192.154 223.866 190.098 224.408 188.267 225.425C183.318 228.788 182.862 236.315 178.953 240.846C175.045 245.376 168.424 246.481 165.535 251.514C162.646 256.546 164.87 262.545 165.515 268.289C171.714 270.953 178.701 271.126 185.025 268.771Z" fill="#A24B27"/>
</g>
<g style="mix-blend-mode:multiply" opacity="0.55">
<path d="M171.991 278.486C177.483 276.916 186.52 274.905 186.51 268.013C183.216 271.359 178.934 273.559 174.295 274.287C171.147 274.482 168.039 273.501 165.572 271.535C165.426 274.744 164.921 277.927 164.066 281.024C166.617 280.352 169.261 279.21 171.991 278.486Z" fill="#B9866E"/>
</g>
<g style="mix-blend-mode:multiply" opacity="0.55">
<path d="M193.17 245.358C194.533 244.421 195.957 243.578 197.434 242.834C200.85 241.789 204.177 240.47 207.381 238.89C209.858 236.895 211.711 234.23 212.721 231.213C211.358 230.982 210.019 230.625 208.721 230.148C207.723 229.709 206.758 229.198 205.833 228.62C205.03 231.137 203.872 233.526 202.394 235.716C199.835 239.386 194.208 241.216 193.17 245.358Z" fill="#B9866E"/>
</g>
<g style="mix-blend-mode:multiply" opacity="0.55">
<path d="M223.209 263.216C218.267 265.196 212.525 263.37 210.318 270.299C209.61 273.198 208.118 275.846 206.006 277.953C205.614 278.31 205.161 278.651 204.738 279C211.129 279.746 215.339 271.735 219.93 267.98C222.683 266.207 225.115 263.978 227.122 261.39C225.852 262.068 224.545 262.678 223.209 263.216Z" fill="#B9866E"/>
</g>
<g style="mix-blend-mode:multiply" opacity="0.55">
<path d="M216.001 247.351C215.935 247.553 215.88 247.758 215.837 247.966C218.282 247.048 220.82 246.397 223.405 246.026C228.658 245.088 233.438 242.399 236.97 238.397C235.946 236.943 234.614 235.733 233.07 234.853C230.89 233.733 228.535 232.995 226.106 232.668C225.901 235.378 224.902 237.967 223.234 240.112C221.153 242.855 217.529 244.461 216.001 247.351Z" fill="#B9866E"/>
</g>
<g style="mix-blend-mode:multiply" opacity="0.55">
<path d="M251.375 252.85C251.087 258.509 247.715 263.249 239.626 264.918C231.537 266.588 230.862 274.815 224.1 278.058C217.338 281.301 210.588 279.305 206.434 285.254C205.086 287.193 203.293 288.78 201.205 289.882C199.116 290.984 196.795 291.568 194.434 291.585C189.729 291.683 188.102 298.041 184.753 300.347C182.742 301.739 180.559 302.864 178.26 303.695C170.517 306.413 165.533 303.107 161.553 297.761C161.73 300.067 162.458 302.296 163.677 304.261C165.625 306.763 168.237 308.668 171.214 309.758C174.192 310.848 177.415 311.081 180.519 310.428C186.84 309.024 192.849 306.467 198.245 302.886C214.24 294.201 229.495 284.217 243.857 273.034C247.218 270.699 250.045 267.676 252.15 264.166C253.14 262.428 253.61 260.443 253.506 258.446C253.401 256.448 252.725 254.523 251.559 252.899L251.375 252.85Z" fill="#B9866E"/>
</g>
<path d="M243.716 267.623C243.247 270.004 243.055 271.963 240.827 273.15C238.448 274.439 235.658 274.738 233.06 273.983C232.702 277.184 233.28 279.217 229.868 280.649C227.489 281.646 224.915 282.088 222.341 281.941C221.726 284.25 221.993 285.475 219.757 286.692C216.966 288.281 213.718 288.869 210.548 288.36C208.213 294.035 203.695 297.513 198.838 295.956C198.405 297.738 197.284 299.277 195.721 300.236C192.702 301.919 189.207 302.543 185.792 302.009C182.378 307.033 180.192 309.55 174.585 309.573L217.106 346.251C234.083 342.21 249.687 333.739 262.328 321.702L250.263 265.312C248.447 266.876 246.111 267.701 243.716 267.623Z" fill="#BE4C1B"/>
<path d="M185.829 306.568C194.068 320.804 205.322 333.062 218.801 342.482C218.801 342.482 203.678 312.542 185.829 306.568Z" fill="#8F3300"/>
<path d="M200.143 299.963C200.143 299.963 208.125 324.671 228.467 339.222C228.467 339.222 216.072 307.7 200.143 299.963Z" fill="#8F3300"/>
<path d="M212.671 292.388C216.993 308.332 225.719 322.733 237.848 333.94C237.848 333.94 226.292 301.62 212.671 292.388Z" fill="#8F3300"/>
<path d="M224.57 286.062C224.57 286.062 229.079 312.681 244.977 328.948C244.977 328.948 236.926 297.694 224.57 286.062Z" fill="#8F3300"/>
<path d="M235.92 280.316C237.157 296.062 242.324 311.244 250.947 324.472C250.947 324.472 247.226 295.888 235.92 280.316Z" fill="#8F3300"/>
<path d="M245.536 273.284C245.919 289.519 249.597 305.507 256.349 320.274C256.349 320.274 255.16 287.748 245.536 273.284Z" fill="#8F3300"/>
<g style="mix-blend-mode:multiply" opacity="0.5">
<path d="M234.16 315.254C225.457 317.126 216.386 316.198 208.243 312.604C203.974 310.939 199.739 309.152 195.591 307.157C193.16 306.015 190.851 304.543 188.486 303.154C185.301 307.812 183.326 310.154 178.027 310.259L217.664 344.157C233.418 340.364 247.889 332.47 259.608 321.274L255.63 302.808C249.57 308.613 242.207 312.881 234.16 315.254Z" fill="#9E5838"/>
</g>
<g style="mix-blend-mode:screen" opacity="0.32">
<path d="M218.964 235.612C218.679 235.537 218.381 235.523 218.091 235.57C217.8 235.618 217.522 235.726 217.276 235.888L206.874 240.799C205.304 241.444 203.832 242.306 202.501 243.359C201.144 244.448 200.263 246.023 200.047 247.75C199.952 248.556 200.12 249.372 200.527 250.074C200.934 250.777 201.557 251.329 202.304 251.647C203.039 251.776 203.796 251.703 204.494 251.436C205.191 251.169 205.804 250.718 206.266 250.131C207.226 248.952 208.009 247.639 208.589 246.234C209.199 244.824 210.097 243.558 211.226 242.518C213.642 240.623 217.43 240.874 219.02 238.001C219.748 237.37 219.854 235.981 218.964 235.612Z" fill="#B27B60"/>
</g>
<g style="mix-blend-mode:screen" opacity="0.32">
<path d="M169.314 258.355L168.477 262.979C168.205 263.968 168.223 265.015 168.531 265.993C169.035 266.746 169.813 267.271 170.699 267.458C171.585 267.645 172.509 267.478 173.273 266.993C176.007 265.512 177.125 262.183 178.597 259.377C180.231 256.383 182.53 253.804 185.317 251.837C186.317 251.232 187.247 250.518 188.091 249.708C188.525 249.296 188.861 248.791 189.073 248.231C189.285 247.671 189.368 247.07 189.315 246.474C189.133 245.755 188.722 245.116 188.144 244.653C187.565 244.189 186.852 243.927 186.111 243.906C184.62 243.886 183.144 244.215 181.802 244.868C179.547 245.707 177.385 246.777 175.35 248.062C173.329 249.387 171.7 251.23 170.634 253.399C169.988 254.989 169.544 256.655 169.314 258.355Z" fill="#B27B60"/>
</g>
<g style="mix-blend-mode:screen" opacity="0.32">
<path d="M228.478 257.663C227.268 258.348 226.128 259.148 225.073 260.053C222.507 261.92 219.413 262.92 216.24 262.909C219.183 260.558 221.717 257.735 223.737 254.554C225.765 251.358 228.801 248.93 232.363 247.654C233.302 247.394 234.288 247.352 235.245 247.533C236.202 247.713 237.105 248.111 237.884 248.696C238.626 249.372 239.122 250.275 239.294 251.264C239.466 252.253 239.305 253.271 238.835 254.158C238.274 254.917 237.553 255.541 236.722 255.987C235.891 256.433 234.971 256.688 234.03 256.735C232.142 256.75 230.268 257.063 228.478 257.663Z" fill="#B27B60"/>
</g>
<g style="mix-blend-mode:screen" opacity="0.32">
<path d="M193.085 268.94C193.387 269.475 193.827 269.92 194.358 270.23C194.889 270.539 195.493 270.702 196.108 270.701C197.356 270.693 198.58 270.36 199.66 269.735C204.175 266.881 207.944 262.991 210.656 258.389C211.288 257.502 211.911 256.152 211.15 255.422C210.907 255.214 210.621 255.063 210.312 254.981C210.003 254.898 209.68 254.887 209.365 254.946C203.753 255.939 198.644 258.809 194.874 263.087C194.112 263.912 193.501 264.865 193.07 265.903C192.87 266.385 192.769 266.901 192.771 267.423C192.774 267.944 192.88 268.46 193.085 268.94Z" fill="#B27B60"/>
</g>
<g style="mix-blend-mode:screen" opacity="0.32">
<path d="M177.938 283.004C176.588 283.876 175.147 284.597 173.641 285.156C171.649 285.604 169.728 286.324 167.931 287.295C167.078 287.921 166.404 288.76 165.979 289.729C165.553 290.698 165.39 291.762 165.506 292.814C165.654 293.839 166.081 294.803 166.74 295.601C167.399 296.398 168.265 296.999 169.244 297.337C170.354 297.622 171.514 297.66 172.641 297.447C173.768 297.235 174.835 296.777 175.766 296.107C177.632 294.728 179.329 293.133 180.821 291.355C182.312 289.559 184.131 288.064 186.179 286.947C187.836 286.168 189.764 285.857 191.368 285.032C192.229 284.69 192.984 284.127 193.56 283.401C194.135 282.675 194.509 281.81 194.645 280.894C194.638 280.143 194.41 279.411 193.99 278.789C193.57 278.167 192.976 277.682 192.282 277.396C190.861 276.864 189.298 276.857 187.872 277.375C186.409 277.939 185.018 278.676 183.729 279.569C181.842 280.714 179.886 281.875 177.938 283.004Z" fill="#B27B60"/>
</g>
<path d="M197.977 231.77L197.362 231.606C197.047 231.328 196.672 231.127 196.266 231.019C195.86 230.91 195.435 230.898 195.023 230.983C194.209 231.203 193.452 231.598 192.804 232.139C191.609 233.035 190.58 234.133 189.765 235.385C189.409 235.82 189.174 236.341 189.084 236.896C188.994 237.451 189.052 238.02 189.253 238.545C189.429 238.804 189.665 239.017 189.941 239.165C190.217 239.314 190.525 239.393 190.839 239.396C191.458 239.416 192.074 239.299 192.643 239.053C194.257 238.486 195.726 237.572 196.948 236.375C197.786 235.623 198.346 234.611 198.537 233.501C198.523 232.443 199.003 231.878 197.977 231.77Z" fill="#652700"/>
<path d="M166.984 260.669C167.907 260.915 168.91 260.49 169.7 259.876C170.578 259.287 171.322 258.519 171.882 257.622C172.179 257.158 172.378 256.639 172.466 256.095C172.554 255.551 172.53 254.995 172.394 254.462C172.256 253.958 171.955 253.514 171.538 253.2C171.12 252.886 170.61 252.719 170.088 252.727C170.045 252.687 169.994 252.655 169.939 252.635C169.883 252.615 169.824 252.606 169.765 252.609C169.706 252.611 169.649 252.626 169.595 252.651C169.542 252.676 169.494 252.712 169.454 252.756L168.347 252.955C167.39 253.533 166.628 254.384 166.158 255.399C165.688 256.413 165.532 257.545 165.71 258.649C165.736 259.065 165.866 259.469 166.088 259.822C166.311 260.175 166.619 260.467 166.984 260.669Z" fill="#B27B60"/>
<path d="M223.042 252.094C222.11 251.62 221.075 251.382 220.03 251.403C218.984 251.423 217.959 251.701 217.046 252.212C216.36 252.575 215.783 253.116 215.377 253.778C214.917 254.385 214.714 255.147 214.811 255.902C214.964 256.511 215.315 257.051 215.808 257.439C216.301 257.827 216.908 258.04 217.536 258.045C218.796 258.034 220.03 257.678 221.104 257.018C221.698 256.797 222.236 256.449 222.681 255.998C223.125 255.547 223.466 255.004 223.678 254.407C224.135 252.814 224.104 252.806 223.042 252.094Z" fill="#652700"/>
<path d="M200.967 246.643C200.15 246.44 199.289 246.502 198.51 246.823C197.732 247.143 197.075 247.704 196.638 248.424C195.76 249.909 195.256 251.586 195.172 253.309C195.051 253.783 195.04 254.278 195.142 254.757C195.243 255.235 195.453 255.684 195.755 256.068C196.631 256.862 198.005 256.404 199.127 255.78C200.951 254.608 202.394 252.93 203.279 250.952C203.606 250.42 203.784 249.81 203.793 249.186C203.803 248.562 203.644 247.947 203.334 247.406C202.44 246.31 202.167 246.963 200.967 246.643Z" fill="#652700"/>
<path d="M170.424 289.937C171.006 288.618 171.38 287.216 171.531 285.781C171.623 285.467 171.648 285.137 171.604 284.813C171.559 284.489 171.447 284.178 171.275 283.9C171.138 283.772 170.976 283.676 170.798 283.618C170.621 283.56 170.432 283.542 170.247 283.565C170.062 283.588 169.884 283.652 169.726 283.751C169.568 283.851 169.433 283.984 169.332 284.141L168.621 284.215L168.467 284.174L168.264 284.318C167.424 284.427 166.655 284.845 166.106 285.49C165.566 286.143 165.118 286.867 164.775 287.641C164.428 288.188 164.202 288.802 164.111 289.443C164.02 290.084 164.066 290.736 164.247 291.358C164.555 291.953 165.064 292.42 165.683 292.676C166.303 292.932 166.993 292.959 167.631 292.754C168.269 292.508 168.848 292.13 169.329 291.645C169.811 291.159 170.184 290.577 170.424 289.937Z" fill="#652700"/>
<path d="M184.331 296.114C185.061 296.426 185.859 296.545 186.648 296.461C187.438 296.377 188.192 296.092 188.841 295.634C190.157 294.69 191.294 293.519 192.2 292.177C192.555 291.789 192.832 291.337 193.016 290.845C193.095 290.604 193.107 290.346 193.051 290.099C192.995 289.852 192.873 289.625 192.698 289.441C192.521 289.292 192.314 289.183 192.09 289.124C191.867 289.064 191.633 289.055 191.406 289.097C190.948 289.206 190.497 289.415 190.048 289.494C189.039 289.477 188.037 289.332 187.066 289.062C186.201 288.985 185.335 289.179 184.586 289.618C183.837 290.056 183.244 290.718 182.888 291.51C182.523 292.321 182.469 293.238 182.734 294.086C183 294.935 183.568 295.656 184.331 296.114Z" fill="#652700"/>
<path d="M204.258 275.114C204.752 274.416 205.163 273.662 205.482 272.868C205.605 272.643 205.673 272.391 205.678 272.134C205.683 271.877 205.627 271.623 205.512 271.393C205.096 270.853 204.251 271.057 203.607 271.248L200.438 272.382C199.656 272.62 198.91 272.965 198.221 273.407C197.53 273.866 197.045 274.577 196.87 275.388C196.797 275.96 196.92 276.54 197.22 277.033C197.52 277.526 197.978 277.903 198.519 278.102C199.085 278.29 199.685 278.349 200.276 278.272C200.867 278.195 201.434 277.986 201.932 277.659C202.872 276.978 203.664 276.111 204.258 275.114Z" fill="#652700"/>
<path d="M221.711 274.652C221.527 274 221.097 273.445 220.511 273.105C219.926 272.764 219.231 272.665 218.573 272.827C217.889 273.024 217.262 273.38 216.743 273.867C216.224 274.353 215.828 274.956 215.587 275.626C215.092 276.936 214.909 278.343 215.052 279.736C215.026 279.961 215.051 280.189 215.125 280.403C215.199 280.617 215.321 280.811 215.481 280.971C215.726 281.105 216.003 281.172 216.282 281.166C216.561 281.159 216.834 281.079 217.073 280.933C218.789 280.192 220.211 278.9 221.115 277.263C221.619 276.492 221.831 275.566 221.711 274.652Z" fill="#652700"/>
<path d="M242.095 260.103C242.75 259.88 243.345 259.508 243.834 259.017C244.337 258.497 244.626 257.806 244.641 257.083C244.656 256.359 244.398 255.656 243.917 255.116C243.499 254.756 243.005 254.496 242.473 254.354C241.94 254.212 241.382 254.192 240.84 254.296C239.429 254.489 238.082 255.011 236.909 255.821C236.026 256.38 235.337 257.198 234.934 258.163C234.734 258.623 234.679 259.134 234.778 259.626C234.877 260.118 235.124 260.567 235.486 260.914C235.896 261.165 236.357 261.32 236.835 261.368C237.313 261.415 237.796 261.354 238.247 261.188C239.561 260.948 240.849 260.585 242.095 260.103Z" fill="#652700"/>
<path d="M183.866 260.748C183.18 260.538 182.459 260.469 181.745 260.546C180.554 260.91 179.495 261.616 178.7 262.576C177.906 263.537 177.41 264.709 177.275 265.948C177.187 266.395 177.213 266.858 177.35 267.292C177.488 267.726 177.733 268.119 178.063 268.433C178.339 268.635 178.662 268.764 179.002 268.809C179.341 268.853 179.686 268.811 180.005 268.687C180.669 268.441 181.269 268.048 181.761 267.539C182.604 266.735 183.336 265.821 183.934 264.821C184.311 264.229 184.575 263.573 184.714 262.886C184.769 262.547 184.756 262.201 184.675 261.868C184.594 261.535 184.446 261.221 184.241 260.947C183.788 260.298 184.442 260.44 183.866 260.748Z" fill="#652700"/>
<path d="M168.214 260.997C169.685 260.591 171.027 259.813 172.111 258.738C172.632 258.176 173.008 257.495 173.206 256.755C173.403 256.014 173.415 255.236 173.242 254.49C173.03 253.852 172.636 253.291 172.108 252.875C171.581 252.459 170.943 252.207 170.274 252.149L169.997 252.076C169.293 252.303 168.653 252.697 168.134 253.224C167.615 253.752 167.231 254.398 167.015 255.106C166.59 256.529 166.385 258.008 166.407 259.493C166.359 259.767 166.375 260.047 166.452 260.314C166.53 260.58 166.667 260.825 166.854 261.03C167.211 261.422 167.693 261.22 168.214 260.997Z" fill="#652700"/>
<path d="M126.259 230.585C123.347 229.741 120.435 232.077 117.419 232.047C114.403 232.016 111.737 229.781 108.861 230.312C105.984 230.843 104.159 234.301 101.92 236.458C99.5331 238.446 96.8602 240.062 93.9914 241.25C91.2669 242.662 88.5282 244.739 87.6588 247.72C87.3202 249.42 87.4583 251.18 88.0578 252.806C88.6574 254.432 89.6949 255.861 91.0557 256.933C93.8054 259.063 96.9343 260.652 100.276 261.615C109.23 265.048 118.46 267.71 127.867 269.573C129.904 270.046 132.023 270.05 134.062 269.586C135.076 269.343 135.993 268.803 136.698 268.035C137.402 267.266 137.861 266.305 138.015 265.274C138.13 263.532 137.137 261.948 137.041 260.214C136.886 257.138 138.977 254.769 138.136 251.57C137.248 248.988 135.847 246.611 134.018 244.584C132.973 243.262 132.118 241.8 131.479 240.24C130.892 238.637 130.845 236.928 130.349 235.301C130.101 234.242 129.599 233.26 128.886 232.438C128.174 231.616 127.272 230.98 126.259 230.585Z" fill="#993A12"/>
<g style="mix-blend-mode:screen" opacity="0.32">
<path d="M108.931 244.022C113.343 246.338 114.811 243.485 118.729 242.489C120.956 241.853 123.322 241.896 125.525 242.612C127.925 243.309 130.011 244.814 131.428 246.873C132.865 249.392 132.937 252.422 134.309 254.897C135.006 256.138 136.049 257.149 137.311 257.807C137.813 255.78 138.737 253.895 138.104 251.549C137.216 248.966 135.815 246.59 133.986 244.563C132.941 243.24 132.086 241.778 131.446 240.218C130.86 238.616 130.813 236.906 130.317 235.28C130.066 234.231 129.566 233.258 128.859 232.444C128.152 231.63 127.26 230.998 126.257 230.602C123.344 229.759 120.433 232.095 117.417 232.064C114.401 232.033 111.735 229.798 108.859 230.329C105.982 230.861 104.417 233.789 102.452 235.999C103.527 239.393 105.841 242.258 108.931 244.022Z" fill="#A24B27"/>
</g>
<g style="mix-blend-mode:multiply" opacity="0.55">
<path d="M100.763 242.126C103.272 243.797 107.199 246.753 109.821 244.346C107.34 244.165 104.986 243.176 103.121 241.529C101.949 240.332 101.262 238.743 101.193 237.069C99.8784 238.144 98.4365 239.053 96.8998 239.775C98.2183 240.592 99.5154 241.3 100.763 242.126Z" fill="#8C3A12"/>
</g>
<g style="mix-blend-mode:multiply" opacity="0.55">
<path d="M120.616 239.232C121.434 239.459 122.237 239.737 123.021 240.064C124.553 241.066 126.161 241.945 127.832 242.694C129.387 242.981 130.993 242.8 132.445 242.172C132.078 241.571 131.759 240.944 131.489 240.294C131.303 239.746 131.151 239.187 131.034 238.62C129.834 239.14 128.566 239.488 127.269 239.654C125.104 239.836 122.497 238.241 120.616 239.232Z" fill="#8C3A12"/>
</g>
<g style="mix-blend-mode:multiply" opacity="0.55">
<path d="M124.321 257.513C121.888 256.204 120.543 253.24 117.145 254.847C115.794 255.588 114.258 255.924 112.721 255.815L111.874 255.707C113.809 258.587 118.343 257.441 121.367 257.964C122.979 258.477 124.671 258.691 126.36 258.597C125.656 258.285 124.974 257.922 124.321 257.513Z" fill="#8C3A12"/>
</g>
<g style="mix-blend-mode:multiply" opacity="0.55">
<path d="M127.696 249.035L127.384 249.136C128.589 249.816 129.717 250.625 130.748 251.547C132.848 253.305 135.486 254.291 138.224 254.339C138.414 253.413 138.391 252.455 138.158 251.538C137.818 250.278 137.276 249.083 136.553 247.997C135.505 248.853 134.211 249.354 132.86 249.426C131.162 249.527 129.327 248.627 127.696 249.035Z" fill="#8C3A12"/>
</g>
<path d="M138.015 265.274C135.823 267.192 132.882 267.539 129.433 264.836C125.983 262.133 122.621 264.833 119.103 263.228C115.778 261.753 113.901 258.142 110.141 258.579C108.897 258.733 107.635 258.575 106.467 258.121C105.299 257.666 104.262 256.929 103.449 255.974C101.785 254.007 98.7098 255.69 96.5375 255.099C95.2762 254.767 94.0641 254.271 92.9325 253.623C89.1429 251.386 88.7425 248.173 89.5049 244.652C88.6367 245.544 87.9935 246.631 87.6284 247.821C87.2898 249.521 87.4279 251.282 88.0274 252.908C88.627 254.534 89.6645 255.962 91.0253 257.035C93.775 259.165 96.9039 260.754 100.246 261.716C109.2 265.149 118.43 267.812 127.836 269.675C129.874 270.148 131.992 270.152 134.032 269.687C135.065 269.444 136 268.891 136.711 268.102C137.423 267.314 137.877 266.327 138.015 265.274Z" fill="#792C12"/>
<path d="M129.834 267.486C128.783 268.161 127.913 268.789 126.743 268.324C125.392 267.79 124.303 266.751 123.704 265.427C122.382 266.437 121.8 267.434 120.051 266.545C118.81 265.934 117.722 265.052 116.867 263.964C115.732 264.47 115.39 265.094 114.116 264.616C112.498 264.032 111.133 262.902 110.255 261.422C107.2 262.528 104.255 261.944 103.177 259.365C102.752 259.591 102.287 259.728 101.808 259.77C101.329 259.812 100.847 259.757 100.39 259.609C98.6519 258.958 97.1808 257.745 96.2092 256.164C93.0155 256.567 91.2419 256.57 89.2715 254.248L89.4007 286.058C97.0637 291.756 106.177 295.175 115.696 295.925L133.101 269.411C132.457 269.321 131.836 269.105 131.276 268.775C130.715 268.444 130.225 268.007 129.834 267.486Z" fill="#BE4C1B"/>
<path d="M94.4583 257.786C91.56 266.634 90.5591 275.994 91.5211 285.255C91.5211 285.255 98.3297 267.411 94.4583 257.786Z" fill="#8F3300"/>
<path d="M102.089 261.3C102.089 261.3 94.9833 273.872 96.3233 288.095C96.3233 288.095 104.676 270.815 102.089 261.3Z" fill="#8F3300"/>
<path d="M109.454 263.727C104.598 271.661 101.966 280.756 101.833 290.058C101.833 290.058 110.654 272.82 109.454 263.727Z" fill="#8F3300"/>
<path d="M116.109 266.344C116.109 266.344 107.272 278.17 106.46 291.224C106.46 291.224 115.963 275.811 116.109 266.344Z" fill="#8F3300"/>
<path d="M122.296 268.92C116.506 275.526 112.427 283.454 110.416 292.006C110.416 292.006 120.331 279.439 122.296 268.92Z" fill="#8F3300"/>
<path d="M128.351 270.32C122.122 276.744 117.252 284.36 114.032 292.711C114.032 292.711 126.373 279.695 128.351 270.32Z" fill="#8F3300"/>
<g style="mix-blend-mode:multiply" opacity="0.5">
<path d="M108.07 281.293C104.17 278.263 101.317 274.086 99.9105 269.35C99.0744 266.943 98.2945 264.508 97.6249 262.034C97.2451 260.598 97.0123 259.111 96.7449 257.619C93.7824 257.999 92.132 258.001 90.2974 255.854L90.4155 285.396C97.5391 290.685 106.008 293.858 114.852 294.553L120.683 285.667C116.176 285.301 111.836 283.796 108.07 281.293Z" fill="#9E5838"/>
</g>
<g style="mix-blend-mode:screen" opacity="0.32">
<path d="M133.065 246.15C132.918 245.879 132.675 245.673 132.383 245.572L127.004 243.133C126.23 242.733 125.404 242.445 124.549 242.278C124.123 242.189 123.683 242.191 123.257 242.282C122.832 242.373 122.43 242.552 122.077 242.807C121.729 243.071 121.479 243.442 121.365 243.863C121.252 244.285 121.281 244.732 121.448 245.134C121.65 245.461 121.933 245.73 122.27 245.914C122.606 246.099 122.985 246.192 123.369 246.186C124.141 246.162 124.904 246.022 125.634 245.77C126.365 245.52 127.144 245.445 127.909 245.549C129.434 245.848 130.654 247.443 132.197 247.182C132.707 247.035 133.232 246.628 133.065 246.15Z" fill="#B27B60"/>
</g>
<g style="mix-blend-mode:screen" opacity="0.32">
<path d="M107.564 234.17L105.512 235.403C105.03 235.62 104.631 235.989 104.378 236.454C103.988 237.318 104.729 238.255 105.606 238.682C107.203 238.996 108.857 238.84 110.368 238.232C112.069 237.864 113.832 237.9 115.516 238.34C116.07 238.527 116.641 238.659 117.222 238.732C117.521 238.757 117.823 238.714 118.104 238.607C118.385 238.5 118.638 238.331 118.845 238.112C119.048 237.782 119.144 237.398 119.121 237.012C119.098 236.625 118.956 236.255 118.715 235.952C118.215 235.365 117.591 234.896 116.888 234.579C115.807 233.967 114.662 233.474 113.475 233.11C112.284 232.748 111.015 232.727 109.813 233.05C109.018 233.323 108.261 233.699 107.564 234.17Z" fill="#B27B60"/>
</g>
<g style="mix-blend-mode:screen" opacity="0.32">
<path d="M128.233 257.675C127.561 257.431 126.866 257.255 126.158 257.149C124.517 256.745 123.052 255.819 121.981 254.512C123.871 254.873 125.809 254.904 127.71 254.605C129.622 254.298 131.581 254.671 133.247 255.658C133.679 255.947 134.041 256.329 134.306 256.776C134.571 257.223 134.733 257.724 134.78 258.242C134.808 258.762 134.659 259.277 134.356 259.701C134.054 260.126 133.616 260.435 133.115 260.578C132.627 260.617 132.137 260.544 131.682 260.365C131.227 260.185 130.819 259.904 130.49 259.542C129.828 258.818 129.068 258.19 128.233 257.675Z" fill="#B27B60"/>
</g>
<g style="mix-blend-mode:screen" opacity="0.32">
<path d="M111.689 247.34C111.6 247.65 111.59 247.976 111.657 248.291C111.724 248.606 111.867 248.899 112.074 249.146C112.51 249.642 113.068 250.015 113.692 250.229C116.307 251.057 119.088 251.216 121.78 250.692C122.348 250.641 123.061 250.415 123.08 249.855C123.061 249.685 123.004 249.52 122.913 249.375C122.822 249.23 122.699 249.107 122.554 249.016C120.295 247.111 117.443 246.053 114.488 246.026C113.943 245.991 113.397 246.065 112.881 246.244C112.617 246.334 112.374 246.477 112.169 246.666C111.964 246.855 111.8 247.084 111.689 247.34Z" fill="#B27B60"/>
</g>
<g style="mix-blend-mode:screen" opacity="0.32">
<path d="M101.025 246.147C100.198 245.907 99.3982 245.581 98.6378 245.177C97.7851 244.523 96.8497 243.985 95.8561 243.577C95.3147 243.438 94.7455 243.453 94.2119 243.619C93.6784 243.786 93.2016 244.097 92.8348 244.519C92.4681 244.941 92.2258 245.457 92.135 246.009C92.0443 246.56 92.1087 247.126 92.321 247.643C92.5859 248.19 92.9665 248.671 93.4362 249.055C93.9059 249.44 94.4536 249.717 95.0412 249.868C96.2277 250.167 97.4461 250.322 98.6697 250.328C99.8964 250.295 101.117 250.509 102.259 250.958C103.14 251.351 103.884 251.99 104.782 252.385C105.209 252.617 105.691 252.728 106.177 252.706C106.662 252.684 107.132 252.53 107.537 252.259C107.827 251.979 108.032 251.621 108.125 251.228C108.218 250.835 108.197 250.424 108.063 250.043C107.781 249.28 107.241 248.64 106.537 248.233C105.836 247.84 105.092 247.528 104.32 247.302L101.025 246.147Z" fill="#B27B60"/>
</g>
<path d="M127.277 236.546L127.18 236.2C127.171 235.983 127.112 235.772 127.009 235.582C126.905 235.393 126.759 235.229 126.582 235.105C126.224 234.861 125.822 234.691 125.399 234.604C124.671 234.446 123.922 234.41 123.183 234.498C122.575 234.58 121.894 234.827 121.751 235.406C121.722 235.566 121.728 235.729 121.769 235.886C121.809 236.043 121.884 236.189 121.987 236.314C122.194 236.563 122.449 236.768 122.735 236.919C123.498 237.334 124.341 237.578 125.208 237.636C125.748 237.723 126.301 237.605 126.759 237.306C127.203 236.993 127.572 236.987 127.277 236.546Z" fill="#652700"/>
<path d="M105.935 233.999C106.06 234.227 106.24 234.42 106.458 234.561C106.676 234.702 106.926 234.787 107.185 234.807C107.706 234.953 108.252 234.986 108.788 234.905C109.056 234.866 109.313 234.77 109.54 234.623C109.768 234.476 109.961 234.282 110.107 234.053C110.248 233.825 110.313 233.558 110.293 233.291C110.274 233.023 110.17 232.769 109.997 232.564C109.996 232.502 109.972 232.442 109.928 232.398C109.885 232.353 109.826 232.326 109.764 232.324L109.303 231.949C108.764 231.765 108.182 231.75 107.635 231.907C107.088 232.064 106.602 232.384 106.242 232.826C106.103 232.984 106.002 233.172 105.949 233.376C105.895 233.58 105.891 233.793 105.935 233.999Z" fill="#B27B60"/>
<path d="M128.409 253.517C128.27 252.981 128.005 252.485 127.636 252.072C127.267 251.658 126.805 251.339 126.288 251.14C125.935 251.007 125.556 250.959 125.182 251C124.993 251.023 124.811 251.083 124.645 251.177C124.48 251.27 124.335 251.395 124.217 251.545C124.061 251.822 123.991 252.138 124.017 252.455C124.042 252.771 124.162 253.073 124.361 253.32C124.793 253.824 125.351 254.204 125.977 254.421C126.265 254.584 126.586 254.678 126.916 254.696C127.246 254.713 127.575 254.653 127.878 254.521C128.475 254.246 128.555 254.168 128.409 253.517Z" fill="#652700"/>
<path d="M122.837 242.763C122.648 242.372 122.337 242.052 121.952 241.851C121.566 241.65 121.126 241.579 120.696 241.649C119.841 241.803 119.039 242.173 118.366 242.723C118.148 242.85 117.961 243.023 117.817 243.229C117.673 243.435 117.575 243.67 117.53 243.917C117.539 244.533 118.172 244.947 118.763 245.128C119.818 245.44 120.942 245.436 121.995 245.116C122.598 244.929 123.245 244.536 123.341 243.916C123.437 243.296 123.074 243.39 122.837 242.763Z" fill="#652700"/>
<path d="M95.7162 245.509C96.4237 245.251 97.0901 244.892 97.6947 244.442C97.8507 244.365 97.9886 244.256 98.0994 244.121C98.2102 243.987 98.2914 243.831 98.3377 243.663C98.3467 243.564 98.3328 243.465 98.297 243.372C98.2613 243.28 98.2047 243.197 98.1316 243.13C98.0586 243.063 97.9711 243.014 97.8759 242.986C97.7807 242.958 97.6804 242.953 97.5829 242.97L97.3003 242.706L97.32 242.55L97.1991 242.535C96.8614 242.237 96.4278 242.07 95.9772 242.064C95.538 242.075 95.1027 242.15 94.6849 242.287C94.3458 242.339 94.0217 242.463 93.7344 242.651C93.4472 242.839 93.2034 243.086 93.0196 243.376C92.9062 243.708 92.9063 244.069 93.0199 244.401C93.1334 244.733 93.3541 245.018 93.6471 245.212C93.9521 245.403 94.2938 245.528 94.6501 245.58C95.0065 245.631 95.3696 245.607 95.7162 245.509Z" fill="#652700"/>
<path d="M98.1003 253.435C98.2264 253.845 98.455 254.216 98.7644 254.514C99.0738 254.811 99.4539 255.025 99.8687 255.134C100.702 255.33 101.563 255.379 102.413 255.281C102.681 255.28 102.945 255.224 103.189 255.116C103.313 255.066 103.421 254.982 103.5 254.874C103.579 254.766 103.625 254.638 103.635 254.505C103.635 254.379 103.606 254.254 103.55 254.14C103.495 254.027 103.414 253.927 103.315 253.85C103.105 253.7 102.872 253.6 102.665 253.434C102.458 253.267 102.116 252.503 101.806 252.042C101.546 251.665 101.171 251.382 100.737 251.235C100.303 251.088 99.8337 251.086 99.3982 251.228C98.9524 251.377 98.5755 251.683 98.337 252.089C98.0985 252.494 98.0145 252.972 98.1003 253.435Z" fill="#652700"/>
<path d="M113.209 254.05C113.648 254.009 114.079 253.91 114.492 253.756C114.752 253.648 115.016 253.506 115.068 253.231C115.12 252.957 114.762 252.595 114.454 252.398L112.911 251.553C112.558 251.319 112.172 251.14 111.767 251.021C111.56 250.959 111.343 250.939 111.129 250.963C110.914 250.987 110.707 251.055 110.52 251.162C110.26 251.349 110.072 251.62 109.988 251.929C109.904 252.238 109.929 252.567 110.059 252.86C110.176 253.145 110.356 253.4 110.585 253.605C110.814 253.811 111.087 253.962 111.383 254.047C111.985 254.171 112.606 254.172 113.209 254.05Z" fill="#652700"/>
<path d="M119.472 261.009C119.65 260.69 119.708 260.318 119.634 259.96C119.56 259.602 119.359 259.282 119.069 259.061C118.766 258.854 118.419 258.723 118.055 258.677C117.692 258.631 117.323 258.671 116.978 258.796C116.296 259.068 115.692 259.504 115.22 260.066C115.122 260.144 115.043 260.241 114.986 260.352C114.93 260.463 114.898 260.585 114.892 260.71C114.919 260.855 114.984 260.991 115.081 261.102C115.178 261.213 115.304 261.296 115.444 261.342C116.319 261.786 117.32 261.913 118.278 261.701C118.513 261.673 118.741 261.597 118.946 261.478C119.151 261.359 119.33 261.2 119.472 261.009Z" fill="#652700"/>
<path d="M132.071 264.099C132.382 264.278 132.727 264.388 133.084 264.42C133.462 264.433 133.829 264.295 134.105 264.037C134.381 263.779 134.544 263.422 134.558 263.044C134.535 262.75 134.451 262.464 134.311 262.205C134.172 261.945 133.98 261.717 133.748 261.536C133.194 261.04 132.528 260.684 131.808 260.5C131.296 260.342 130.747 260.352 130.242 260.529C129.995 260.622 129.782 260.787 129.633 261.004C129.483 261.22 129.403 261.477 129.403 261.741C129.457 261.996 129.563 262.238 129.714 262.45C129.866 262.663 130.059 262.842 130.283 262.976C130.847 263.399 131.445 263.775 132.071 264.099Z" fill="#652700"/>
<path d="M111.616 240.849C111.472 240.499 111.254 240.184 110.978 239.925C110.452 239.587 109.838 239.411 109.213 239.419C108.587 239.427 107.978 239.619 107.461 239.971C107.257 240.095 107.088 240.267 106.967 240.473C106.846 240.678 106.777 240.91 106.767 241.148C106.792 241.329 106.858 241.501 106.961 241.651C107.064 241.802 107.201 241.926 107.36 242.014C107.66 242.133 107.981 242.192 108.304 242.186C108.892 242.253 109.488 242.228 110.069 242.111C110.422 242.06 110.761 241.935 111.063 241.745C111.213 241.649 111.342 241.523 111.442 241.376C111.542 241.229 111.611 241.063 111.646 240.888C111.787 240.607 111.979 240.895 111.616 240.849Z" fill="#652700"/>
<path d="M106.17 234.643C106.836 235.059 107.599 235.295 108.383 235.328C108.776 235.342 109.165 235.255 109.514 235.074C109.863 234.894 110.159 234.627 110.375 234.298C110.538 233.994 110.613 233.651 110.592 233.307C110.57 232.962 110.453 232.631 110.253 232.35L110.126 232.246C109.804 232.045 109.438 231.924 109.06 231.894C108.682 231.865 108.302 231.927 107.953 232.076C107.25 232.385 106.603 232.807 106.038 233.327C105.822 233.51 105.584 233.726 105.601 234.009C105.618 234.292 105.926 234.49 106.17 234.643Z" fill="#652700"/>
<path d="M129.908 369.366C123.936 374.782 113.568 374.311 108.264 368.462C102.959 362.612 101.464 356.012 107.436 350.596C113.408 345.18 118.937 346.48 124.242 352.33C129.546 358.179 135.88 363.951 129.908 369.366Z" fill="#FBD246"/>
<path d="M199.105 167.296C194.798 171.202 188.628 172.305 186.215 169.644C183.802 166.982 183.777 163.384 188.084 159.478C192.391 155.573 195.543 155.588 197.956 158.249C200.369 160.91 203.412 163.39 199.105 167.296Z" fill="#D56C48"/>
<path d="M159.422 268.566C160.357 271.583 159.484 274.875 157.62 275.453C155.755 276.03 153.977 275.217 153.042 272.199C152.107 269.182 152.838 267.633 154.702 267.055C156.567 266.477 158.486 265.548 159.422 268.566Z" fill="#D56C48"/>
<circle cx="169.5" cy="210.5" r="3.5" fill="#A73D22"/>
<path d="M118.679 201.995C117.036 203.745 113.197 201.631 111.207 199.641C109.218 197.652 106.7 193.733 109.599 190.834C112.499 187.934 116.38 191.947 118.37 193.937C120.359 195.927 120.323 200.245 118.679 201.995Z" fill="#E3AB5C"/>
<path d="M13.2471 160.114C12.5953 151.88 19.5164 143.764 27.6314 143.122C35.7464 142.479 42.0727 145.397 42.7245 153.632C43.3763 161.866 38.8299 165.538 30.7148 166.18C22.5998 166.822 13.8988 168.349 13.2471 160.114Z" fill="#F89945"/>
<path d="M274.475 43.3631C275.252 46.2607 273.316 49.616 270.46 50.3812C267.605 51.1464 265.153 50.522 264.377 47.6245C263.6 44.7269 264.981 43.1154 267.837 42.3502C270.693 41.5851 273.699 40.4655 274.475 43.3631Z" fill="#FFCC00"/>
</svg>
